<mxfile host="app.diagrams.net" modified="2023-10-26T15:04:15.117Z" agent="Mozilla/5.0 (Windows NT 10.0; Win64; x64) AppleWebKit/537.36 (KHTML, like Gecko) Chrome/118.0.0.0 Safari/537.36" etag="pQanKLJzcSLxQAuvbHfh" version="22.0.8" type="device">
  <diagram name="Page-1" id="HXbPTVk1DTT3FwHdseMn">
    <mxGraphModel dx="1050" dy="534" grid="1" gridSize="10" guides="1" tooltips="1" connect="1" arrows="1" fold="1" page="1" pageScale="1" pageWidth="850" pageHeight="1100" math="0" shadow="0">
      <root>
        <mxCell id="0" />
        <mxCell id="1" parent="0" />
        <mxCell id="QcjJaONah8FLoVzXu9KI-3" value="" style="edgeStyle=orthogonalEdgeStyle;rounded=0;orthogonalLoop=1;jettySize=auto;html=1;" edge="1" parent="1" source="QcjJaONah8FLoVzXu9KI-1">
          <mxGeometry relative="1" as="geometry">
            <mxPoint x="380" y="270" as="targetPoint" />
          </mxGeometry>
        </mxCell>
        <mxCell id="QcjJaONah8FLoVzXu9KI-1" value="Sensors data" style="rounded=0;whiteSpace=wrap;html=1;" vertex="1" parent="1">
          <mxGeometry x="180" y="240" width="120" height="60" as="geometry" />
        </mxCell>
        <mxCell id="QcjJaONah8FLoVzXu9KI-8" value="" style="edgeStyle=orthogonalEdgeStyle;rounded=0;orthogonalLoop=1;jettySize=auto;html=1;" edge="1" parent="1" source="QcjJaONah8FLoVzXu9KI-6" target="QcjJaONah8FLoVzXu9KI-7">
          <mxGeometry relative="1" as="geometry">
            <Array as="points">
              <mxPoint x="478" y="270" />
              <mxPoint x="478" y="320" />
            </Array>
          </mxGeometry>
        </mxCell>
        <mxCell id="QcjJaONah8FLoVzXu9KI-6" value=".TXT File" style="shape=image;verticalLabelPosition=bottom;labelBackgroundColor=default;verticalAlign=top;aspect=fixed;imageAspect=0;image=data:image/png,iVBORw0KGgoAAAANSUhEUgAAAgAAAAIACAMAAADDpiTIAAAAA3NCSVQICAjb4U/gAAAACXBIWXMAAAztAAAM7QFl1QBJAAAAGXRFWHRTb2Z0d2FyZQB3d3cuaW5rc2NhcGUub3Jnm+48GgAAAvdQTFRF////AAAAAAAAAAAAAAAAAAAAAAAAAAAAAAAAAAAAAAAAAAAAAAAAAAAAAAAAAAAAAAAAAAAAAAAAAAAAAAAAAAAAAAAAAAAAAAAAAAAAAAAAAAAAAAAAAAAAAAAAAAAAAAAAAAAAAAAAAAAAAAAAAAAAAAAAAAAAAAAAAAAAAAAAAAAAAAAAAAAAAAAAAAAAAAAAAAAAAAAAAAAAAAAAAAAAAAAAAAAAAAAAAAAAAAAAAAAAAAAAAAAAAAAAAAAAAAAAAAAAAAAAAAAAAAAAAAAAAAAAAAAAAAAAAAAAAAAAAAAAAAAAAAAAAAAAAAAAAAAAAAAAAAAAAAAAAAAAAAAAAAAAAAAAAAAAAAAAAAAAAAAAAAAAAAAAAAAAAAAAAAAAAAAAAAAAAAAAAAAAAAAAAAAAAAAAAAAAAAAAAAAAAAAAAAAAAAAAAAAAAAAAAAAAAAAAAAAAAAAAAAAAAAAAAAAAAAAAAAAAAAAAAAAAAAAAAAAAAAAAAAAAAAAAAAAAAAAAAAAAAAAAAAAAAAAAAAAAAAAAAAAAAAAAAAAAAAAAAAAAAAAAAAAAAAAAAAAAAAAAAAAAAAAAAAAAAAAAAAAAAAAAAAAAAAAAAAAAAAAAAAAAAAAAAAAAAAAAAAAAAAAAAAAAAAAAAAAAAAAAAAAAAAAAAAAAAAAAAAAAAAAAAAAAAAAAAAAAAAAAAAAAAAAAAAAAAAAAAAAAAAAAAAAAAAAAAAAAAAAAAAAAAAAAAAAAAAAAAAAAAAAAAAAAAAAAAAAAAAAAAAAAAAAAAAAAAAAAAAAAAAAAAAAAAAAAAAAAAAAAAAAAAAAAAAAAAAAAAAAAAAAAAAAAAAAAAAAAAAAAAAAAAAAAAAAAAAAAAAAAAAAAAAAAAAAAAAAAAAAAAAAAAAAAAAAAAAAAAAAAAAAAAAAAAAAAAAAAAAAAAAAAAAAAAAAAAAAAAAAAAAAAAAAAAAAAAAAAAAAAAAAAAAAAAAAAAAAAAAAAAAAAAAAAVynFdwAAAPx0Uk5TAAECAwQFBgcICQoLDA0ODxAREhMUFRYXGBkaGxwdHh8gISIjJCUmJygpKissLS4vMDEyMzQ1Njc4OTo7PD0+P0BBQkNERUZHSElKS0xNTk9QUVJTVFVWV1hZWltcXV5fYGFiY2RlZmdoaWprbG1ub3BxcnN0dXZ3eHl6e3x+f4CBgoOEhYaIiYqLjI2Oj5CRkpOUlZaXmJmam5ydnp+goaKjpKWmp6ipqqusra6wsbKztLW2t7i5uru8vb6/wMHCw8TFxsfIycrLzM3Oz9DR0tPU1dbX2Nna29zd3t/g4eLj5OXm5+jp6uvs7e7v8PHy8/T19vf4+fr7/P3+dpH4ZgAAEdFJREFUeNrt3XucVWW9x/E1wwwgwkCCXESUtBBvjGKQlYJCkt0Qo7gJaiaHzCzLO94ik+OxMPMYghc63s3whgMYQVJZKoLNIewcFcQLBeQwMAzMZe/fH/1hxIB75vntvdbe8zz79/n+y37W2s/v92a9Zq31rL2iKA/pNmHes2s2p8VcalYvGBlZT4dpi3aL4VSfZrv/Y9eK8TR/y3D7B64UIrea7f/ILXRfRORKo/2f0UjvRUQkPdFk/6fQ+T3ZfarB/p9UT+P/nfcHm+t/7420vUXW97EGYAFN3ycvHWir/5Uper5vnu5gCsASOr5/fm6p/8Pp94dzlSEAs2l3hssBk+wAWEe7M10OGGGl/4NodubLAUcbAXAOvW7lckBfGwCuoNWt5GUblwPm0OnW8oyJywGP0OhWM9cCgKoME5/R10acfwBfbQDA4gzztnIS3MN5OWAyAEwDkIaRADANQGqOBoBpALKhLwBMA5BVBwLANABZ1AEApgHIXQCwDUCuAYBtAOkpADANQBpOA4BpAFJzDABMA5AN/QBgGoCs6goA0wDk2TIAmAYg8wBgG4DMBIBtAOlzAGAagDScDgDTAKTmWACYBiBv9QOAaQDySlcAmAYgVWUAMA1A5gPANgC5FgC2AchUANgG0DAKAKYByLZjAWAagGw8BACmAcjqbgAwDUAWlwHANAC5GwC2Ach1ALANQKYBwDaAxtEAMA1Ath0HANMAiuNyAABiZE03AJgGIEvKAGAagNwDANsA5HoA2AYg5wLANoDQLwcAIG5qjweAaQDydn8AmAYQ9uUAACSQpWUAMA1A7gWAbQByAwBsA5DzAGAbQONnAWAagNQOAYBpAKFeDgBAYnm1AgCmAcjScgCYBiD3AcA2ALkRALYByNcBYBtA4xkAMA0gvMsBAEg47xwKANMA5M8VADANQJ4rB4BpALIAALYByA8AYBuAXAAA2wCaxgDANADZXgkA0wDk3QEAMA1AqrsDwDQA+XU5AEwDkF8AwDYAmQUA2wDkGwCwDaDpcwAwDUC2nwAA0wACuBwAgPzG+8sBAMhzlpUDwDQA+R8A2AYgPwSAbQByIQBsA2g6EwCmAciOEwFgGoC8dxgATAOQ/+0OANMA5DcdAWAagNwPANsA5CYA2AYg0wFgG0DT5wFgGoCflwMAUMD4eDkAAIXM2h4AMA1AlncEgGkA8kAJAEwDkEsAYBtATS8AmAYgcwFgG0DqIACYBiAjAWAbwMUA8CTd2wfAnQDwJVvbBcATAPAlS9oFwGIA+JKbAWAbwFgA2AZQshwApgFEA3cAwDSAaDoAbAOIvroFAKYBRL0XAsA0gCgaNPnW5a/lKe9mKG8VAOxkEkcAAAAAAAAAAAAAAAAAAAAAAAAAAAAAAAAAAAAAAAAAAAAAAAAAAAAAAAAAAAAAAAAAAAAAAAAAAAAAAAAAAAAAAAAAAAAAAAAAAAAAAAAAAAAAAAAAAAAAAAAAAAAAAAAAAAAAAAAAAAAAAAAAAAAAAAAAAAAAAAAAAAAAAAAAAAAAAAAA0wB6nfWtm+5bUr2hRXZl+Ibvvkby+MqYupYfePnpeT/45thehej+wEtXNAvxMs0rLh2Y3+6XX7yaMvud1ReX5639JZPfoMD+543JJfnp/xmrKG4YWXVGHtrfcT6FDSfzOybd/4Ofp6oh5fmDk+3/kA3UNKxsGJJk/8fUUdHQUjcmuf4fU0s9w0vtMUn1/6DXqWaIef2gZPpftoxahpllZYkAuJ1KhpqfJdH/YWkKGWrSwxIAsJw6hpvl8fv/RaoYcr4Yt/+l1RQx5FSXxgRwLjUMO+fGBLCUEoadpfH6X9FICcNOY0UsABOpYOiZGAvAgxQw9DwY6ypwDQUMPTVxrgcfS/3Cz7FxlgFSvvATZ4Hg+ZQv/JwfA8BMyhd+ZsYAcIdj2ysHFzyntNz/47oxt2VXsW1DVFu9fu+Iiwtfhx+rp3NHDAALHdtuhwcU+7bcf9NRuiXNO7MCMFu10S5v7x0xrvB1uFo9nYUJP/TrEwB5Sjcoq0PA7r6qbc6SQAAsLmYAMlo1qH9DFgDmqTZ5+C4A+ADgVd3tznn6/qcGqbb4mADABwByoWrUkfpH2n+l2uAIAYAfAP7WTTXsAXW9hqvWyawGgCcA5GbdRW3t0lbdKrrpAgBfAOw6PJEz2j05U7Ox7psB4A0AeVg17hO6ar2q2tj+V2EA0J4A5ORE5vJBztFsalAjAHwC8ILqJ1FGaIq1QXXzfJEAwCcAMlk1cqWiWJdoNvR5AYBfAN7qrBl5prtWW7sotlO+DgCeAVDe8XzZWasbNZu5VADgG4Adqvs3X3GVamdPxVZ61QDAOwAyXzO0ZK1jOrdrtjJXAOAfgFSlZuzUtmfTNFCxjcoUADwEIMs0Y8va/qVT1Qr65QIAHwHIlzWDZ7Q5G80Pq40XAPgJ4K+a30ju9G4bk6lSbKDzegB4CkC+qxn9vTYmc5pi/LUCAF8B/OMjitFdtrQ6lz8phvevA4C3AOS2KPf/wiIyXjH6fgGAvwAaNYv5um9r7W8IxeLCk9MA8BiAPKkZ/6NWBk9XXEj6kwDAZwAySjG+lYdENnVyD23995IA4AeANZo14pkfErnGPbDrewDYP9Xn6zLNvSvlls7/blvf5xuKOR3elGFgveI20M1t3ERQfvlPOXdylLYOv/QCgPppK/euEtnPpq6KST2U282kI3bH/35znXv5piQeSwDkJsWkhmYYd7x72EIBgP8Adh2mmNWyXB4GGCUACACAPKSY1YfX9J3tHNPhzwAIAkD6k4pp7f/7x+s7OIdcJAAIAoD8QTGt8/Ybc7lzxEe2AiAQAJpfxuy4713hne7bSD8VAIQCYINijfiVWbbl6CYABANAc1Gv+/aWA9yvV1siAAgHwPY+7r21fLrzOeenvywACAiA5kd+BrQ4po91/snwfwAICkBKsbpz7y+GvOM8B7xcABAUAMVBPTpBf/W4Ty0AAgMgX3Lv77k9V44+6vrk3QKA0AC85n7Mf4z2aDE0BYDgAGie839Ved1opQAgPACKNeLTRERkq2spWKJvTQJAoQDIT5w7LH9bRGSO41MHbARAkAAaP+7c4+Ui7vep3CAACBKAPOHcY0WtyAuuC0Y7ARAoADnductb3KtIHxYAhApgtXONeP/G7Qe2/YnPCACCBSAXOPf5C8ddg9KXARAwgPeca8QHHtH2v18gAAgYgPwwipeKvwEgaAD1A+IBuEUAEDQAeSBW/z/WAIDAAaSHxwHwlAAgcADy+xhzHyMACB6ATMh56mVrAVAEANZ3ynXqlwgAigCAXJXjzHu+D4CiAFDbO7eZ/7cAoCgAyF05Tfy4ZgAUCYDm43KZ+DIBQJEAkKU5zPtsAUDRAJAvZD3tTm8AoIgArCvLdtpXCwCKCIB8O8tZ99sBgKICsLVHdrNeIAAoKgDy46wmPSwNgCID0PCxLOZc8oIAoMgAyMIs5jxVAFB0AGSkesoHvgOAIgSwqlQ75VPz+TV+DoB2AlDXUz3nKo4ARQjgOv2cBzcCoOgA6N4v/6/MAUDRAZiYzaR7bAZAkQH4XXaz/g8AFBeA9Ceym3XpagAUFYAF2U57BACKCUBdv6zn/SgAigjAtdnP+7B6ABQNgA2dc5j4jQAoGgA5PRzUZSMAigTAytxmPgkAxQEgfVKOU18JgKIAcF+uU0/yJ4IB0G4AdvTLee7zAVAEAGbmPvfe2wAQPID1nWNM/vsACB7A12LMPSp/DQCBA3g+ipUvACBsADmfAu7JIgAEDeDemP2PBjUCIGAAO/rGBbDP+yUBEBoA1ytk7z/V+aW6/x0AwQJwnQL23L3E/a0uBECwAFyngJeJDHOvDlsFgEABuE4BS/6qea1MdAoAwgSQGurY3ygRSR/v/l4PAyBIAPe49veYiMjD7u+V6GujAFAoANtdp4B9GkVEUoPcX+x6AAQIwHUKGF3zwecUywUOeAsAwQF40/Ub0aVvfvDBpsPd32wCAIID8FXX3s7c88k7FVX4LQACA/Bb596e+Pc3UywZOiEFgKAApE507az/3t+C1vyC2F0ACAqA8xSw5Suh63q5v9vBNQAICMD2Pq59dWr5QsD/VNThUgAEBOBq5772eSNoneKVEmXrABAMAOcpYFSy7/ugblUU4nMACAbA+GzX+tVrFo48DYBAAKxw72r/14HMUVTi4w0ACAJA6gTnnk7cf8yuQxSluAUAQQC4272nBz406GeKUiTyKnEA5BuA+xQwGtD04a93qKIWFwAgAACK90T+V4ZhmjsCJS8BwHsAb7jfFFtRm2Fcw2GKYnwaAN4D+Ip7P5kf+ZynqcaDAPAcwHLFNb3MyzsaP6qoRv86AHgNQHEKGE3O+QZSFEXXAcBrAPMVM2ptnX/TkYrBndcDwGMAte5TwGhUq6NVvyc7HgAeA7hSMaHWXwfSrHqz2HIAeAtAcQoYDWljvOoQMKQZAL4COFsxn/vbGK87BNwJAE8BKE4BM10FzvYQ0PN9AHgJIFWpmM5P2tyE7hDwHQB4CUBzKa+H463gqkNA2VoAeAigVrGwb8/jYDEPAWcAwEMAVygm02mTayu6d8s8CQDvALzeUTGZ6c7N6A4BRzYAwDcA4xRzKVX88KfuEDAbAJ4B+I1mLuMUG9IdArptAoBXAFJDNHP5g2ZTukPAeQDwCsBdmqmcotqU7hBQ8iIAPAKgOgXU/u2uOwScnAaAPwAu18xksLJlukNAmzcVAFBYAP+vOQWM7tFuTncIOKQOAL4A0JwCRv3U5+7KQ8BMAHgCYFnSp+66Q0CnNwHgBYBm1SlgtyxeAKU8BJwNAC8AzFXN47JsNql82/wyAHgAYNvBmmmUv53VQUV3CDiuGQDtD+CyfFy5Ux4C7gBAuwPQnQKWVGf5d4XuEHDQPwDQ3gDOUs0i69e/KQ8B3wZAOwP4tW4WK7I+tdAdAjpUA6BdATQfr5rEsOy3rDwEjAaA+q91Z3LYaGqbKruy33Jat+Wsv3SDc4v1fgF4XEjweTwGgNspX/i5PQaAqyhf+LkqBoBplC/8TIsBYDTlCz+jYwAYTPnCz+AYAEr/Tv1Cz+bSGAD0K6mIr7k3Tv+jsRQw9JwVC8ABO6lg2KnvEgvA3verkTDzVLz+R2dRwrAzPiaA6HfUMOT8MW7/k/iNbNJ+GREbQLSQKtr9CyCKouioJuoYapqPSQBAjk9BEQ9yQ5RIHqKSYeaxkmQAHPAStQwxq7pECaX/e1QzvGw6NEosQzdRz+D6PzRKMANeoaJh5ZUBUaLpwgLhoPJ4lyjhlMxKU9ZQkp5VEiWfyioqG0aqKqP85PQXKa7/efH0KH8ZX9VAhX1OQ9X4KL+pmPhILXX2M7WPTKqICpCOw8ddNGv+MytaJNObdP6ygiSUv2Qo7/stP/DM/FkXjRveMWq3ZHqMeFJEEsqkDOVd7NU3BAAAAAAAAAAAAAAAAAAAAAAAAIDGAYAAgACAAIAAgACAAIAAgACAAIAAgACAAIAAgACAAIAAgACAAIAAgACAAIAAgACAAAAAAAAAAAAAAAAAAAAAAAAAAAAAAAAAAAAAAAAAAAAAAAAAAAAAAAAAAAAAAAAAAAAAAAAAAAAAAAAAAAAAAAAAAAAAAAAAAAAAAAAAAAAAAAAAAAAAAAAAAAAAAAAAAAAAAAAAAAAAAAAAAAAAAAAAAAAAAAAAAAAAAAAAAAAAAAAAAAAAAAAAAAAAAAAAAAAAAAAAAAAAAAAAAAAAAAAAAAAAAAAANA4AxDCAJ2eThPJkkABIXgMAAAAAAAAAgBepoiGFTpVXAB6lIYXOo14BmENDCp05XgG4goYUOld4BWAqDSl0pnoFYBANKXQG+XW1eh0dKWzWeXa7YjYtKWxmewZgOC0pbIb7dsdyCT0pZJZ4d8u6MkVXCpdUpX+LFhbQlsJlgYerVnpvpC+FysbePq5bOqmezhQm9Sf5uXJtCq0pTKb4unZxRiPNyX8aZ/i7enXkFvqT72wZ6fP65YEr6VB+8/xAz5ewj11Lk/KX6i/5/xBDh2mLdtOpfGT3M1NKw3iQpduEec+u2ZymZUklvXnNs/MmdM1Hr/4JyRkMj1cZ2zAAAAAASUVORK5CYII=;" vertex="1" parent="1">
          <mxGeometry x="380" y="237" width="66" height="66" as="geometry" />
        </mxCell>
        <mxCell id="QcjJaONah8FLoVzXu9KI-7" value="Google Firebase Cloud" style="shape=image;verticalLabelPosition=bottom;labelBackgroundColor=default;verticalAlign=top;aspect=fixed;imageAspect=0;image=data:image/png,iVBORw0KGgoAAAANSUhEUgAABLAAAAJ2CAYAAABPQHtcAAAABHNCSVQICAgIfAhkiAAAAF96VFh0UmF3IHByb2ZpbGUgdHlwZSBBUFAxAAAImeNKT81LLcpMVigoyk/LzEnlUgADYxMuE0sTS6NEAwMDCwMIMDQwMDYEkkZAtjlUKNEABZiYm6UBoblZspkpiM8FAE+6FWgbLdiMAAAgAElEQVR4nOzdaZAk533f+W/W0T099wXM4BgAg4MAQQIgQQIgQYC4eAs8wJs4RFKkjmVQkhXrtSMs70as1/YedtiSFZJXerG7tlYhWdJaKztiSYqkQFHUSVoUJREHAZLGfQ5m+q4jM5998VR2Vff0UVVd1dXH9xNRmEZ31pNPZWdl9/Pr//MkSJIkSZIkSZIkSZIkSZIkSZIkSZIkSZIkSZIkSZIkSZIkSZIkSZIkSZIkSZIkSZIkSZIkSZIkSZIkSZIkSZIkSZIkSZIkSZIkSZIkSZIkSZIkSZIkSZIkSZIkSZIkSZIkSZIkSZIkSZIkSZIkSZIkSZIkSZIkSZIkSZIkSZIkSZIkSZIkSZIkSZIkSZIkSZIkSZIkSZIkSZIkSZIkSZIkSZIkSZIkSZIkSZIkSZIkSZIkSZIkSZIkSZIkSZIkSZIkSZIkSZIkSZIkSZIkSZIkSZIkSZIkSZIkSZIkSZIkSZIkSZIkSZIkSZIkSZIkSZIkSZIkSZIkSZIkSZIkSZIkSZIkSZIkSZIkSZIkSZIkSZIkSZIkSZIkSZIkSZIkSZIkSZIkSZIkSZIkSZIkSZIkSZIkSZIkSZIkSZIkSZIkSZIkSZIkSZIkSZIkSZIkSZIkSZIkSZIkSZIkSZIkSZIkSZIkSZIkSZIkSZIkSZIkSZIkSZIkSZIkSZIkSZIkSZIkSZIkSZIkSZIkSZIkSZIkSZIkSZIkSZIkSZIkSZIkSZIkSZIkSZIkSZIkSZIkSZIkSZIkSZIkSZIkSZIkSZIkSZIkSZIkSZIkSZIkSZIkSZIkSZIkSZIkSZIkSZIkSZIkSZIkSZIkSZIkSZIkSZIkSZIkSZIkSZIkSZIkSZIkSZIkSZIkSZIkSZIkSZIkSZIkSZIkSZIkSZIkSZIkSZIkSZIkSZIkSZIkSZIkSZIkSZIkSZIkSZIkSZIkSZIkSZIkSZIkSZIkSZIkSZIkSZIkSZIkSZIkSZIkSZIkSZIkSZIkSZIkSZIkSZIkSZIkSZIkSZIkSZIkSZIkSZIkSZIkSZIkSZIkSZIkSZIkSZIkSZIkSZIkSZIkSZIkSZIkSZIkSZIkSZIkSZIkSZIkSZIkSZIkSZIkSZIkSZIkSZIkSZIkSZIkSZIkSZIkSZIkSZIkSZIkSZIkSZIkSZIkSZIkSZIkSZIkSZIkSZIkSZIkSZIkSZIkSZIkSZIkSZIkSZIkSZIkSZIkSZIkSZIkSZIkSZIkSZIkSZIkSZIkSZIkSZIkSZIkSZIkSZIkSZIkSZIkSZIkSZIkSZIkSZIkSZIkSZIkSZIkSZIkSZIkSZIkSZIkSZIkSZIkSZIkSZIkSZIkSZIkSZIkSZIkSZIkSZIkSZIkSZIkSZIkSZIkSZIkSZIkSZIkSZIkSZIkSZIkSZIkSZIkSZIkSZIkSZIkSZIkSZIkSZIkSZIkSZIkSZIkSZIkSZIkSZIkSZIkSZIkSZIkSZIkSZIkSZIkSZIkSZIkSZIkSZIkSZIkSZIkSZIkSZIkSZIkSZIkSZIkSZIkSZIkSZIkSZIkSZIkSZIkSZIkSZIkSZIkSZIkSZIkSZIkSZIkSZIkSZIkSZIkSZIkSZIkSZIkSZIkSZIkSZIkSZIkSZIkSZIkSZIkSZIkSZIkSZIkSZIkSZIkSZIkSZIkSZIkSZIkSZIkSZIkSZIkSZIkSZIkSZIkSZIkSZIkSZIkSZIkSZIkSZIkSZIkSZIkSZIkSZIkSZIkSZIkSZIkSZIkSZIkSZIkSZIkSZIkSZIkSZIkSZIkSZIkSZIkSZIkSZIkSZIkSZIkSZIkSZIkSZIkSZIkSZIkSZIkSZIkSZIkSZIkSZIkSZIkSZIkSZIkSZIkSZIkSZIkSZIkSZIkSZIkSZIkSZIkSZIkSZIkSZIkSZIkSZIkSZIkSZIkSZIkSZIkSZIkSZIkSZKkbaQ86g5IW0ACjAPV1v/nI+yLJEmSJEk7TjLqDkib3Bu//ktvuf3E4V2XhzwktSx/8epPfe1LwDdG3TFJkiRJknYKAyxpeaXw4Lv++eR081O7xzhWrQYgQJ7w8lSYPnpk179Nbv/CLwDPjbqjkiRJkiRtdwZY0tkq4Wt3f25uduZf7k7mqtRPQ1oDEkjKMH6IrLJ/rjw+/kvJnV/674HmqDssSZIkSdJ2Vhp1B6TN59o30Jj+3O78pSrTT0BjCvIG5HVI52D2acr1F3Zn9bnPhAff9ZZR91aSJEmSpO3OAEtarBK+evi2bP7USeZeIr5FOh5JKVZh1U9Rzs8cJa3/o9F2V5IkSZKk7c8AS1rsAI3pq0M6XV397ZHA7As0avNvD9/89K0b1jtJkiRJknYgAyxpkfsmqM1cWMqaycpLxAUggTwwlr4IM8/+Y+DoBnZSkiRJkqQdxQBLWuTZcZL0nNKKtzcI7Q+TMjSmyOdfuTn88d3v34jeSZIkSZK0ExlgSR3Cnx0/QLmyd1FQ1f7qMp8rUaqd3svc6Z/4Xvibi4bdP0mSJEmSdiIDLKnT6e9fmTbTo2eHVcuFVwAlSGeYn5+78Yqv/9w9w+6eJEmSJEk7kQGW1Kk5e0HWTPctzqtWCq9a8oyJZIr56cbPD7NrkiRJkiTtVAZY0iLlY+NVknZmtUZ4BZCUYO5lJqrz54RvvO9/GWbvJEmSJEnaiQywpAUBxidOUMpauVUX4VWxTWkcznwfmnP3hx/8w9cNsZOSJEmSJO04BlhS276QTl9JnsGKdyHs1BlwJRASmmdeuICn/uYzwMRwuihJkiRJ0s5jgCW1hD+58+jsTPMSsqybrc/+VFKlmp2G2ukPhD95/zUD76AkSZIkSTuUAZZUeOnFw6WQHVx75uAqG6Q1qM1cyOyZvz/IrkmSJEmStJMZYEmF8cOvHq9kEFabP7hWupVA4xUmp+bvCd/88PWD7J4kSZIkSTuVAZZUCM3XlpN0tQ3WeH4AEkhrHKhOVZia+flBdk+SJEmSpJ3KAEsqNGdfTZKz/Aru3YRXLUkF5p8jnT31nvDnH/nUAHsoSZIkSdKOZIAlRRMk+ZFFQdSCHsKrhc9VKTdP7WLqxXuA8wbRQUmSJEmSdioDLAmA/+5Ckuzw8gHWKlbaPimRZHM056feGv7ovbesv3+SJEmSJO1cBlgS8H/8uyevpFk7dnax1SqB1lphV55RzScPMv/Sz/Nz4dh6+yhJkiRJ0k5lgCUBnz7x/KE8y/cu/uw6wqtCc5rZ6dlrw3vu+FD/vZMkSZIkaWczwJIAGnMHQzmptDOrAYRXAHnOnvJkMt/IPgOcu44eSpIkSZK0YxlgSXCQtHkNedp6PwwivCq2K0Fjhsr8S9e/9IX3fg4or6OfkiRJkiTtSAZYEjfuJa1fXArZ6pv1HF4VSlSTGY7kL94Dn7q+nx5KkiRJkrSTGWBJPLuLvHluslo+1VV4FVi+eiuBtEZan7oyfPGH7wIqfXVTkiRJkqQdygBLO1546TP7GOMAKyVYXYdXq3+5GmbGm43ZHw9f/+DlPXdSkiRJkqQdzABL+vZXLgppdnDZDGoQ4RUACTTnKKXTJ5h78R/22ENJkiRJknY0AyypPntBo57uO+vzAwuv2puW8ylmZubfA4dv7P6JkiRJkiTtbAZYUqifN16msiiwGmh4FVrtJdCssbc0dW74yut/CjjUe2clSZIkSdp5DLC0w4UxxjhBOe/41ADDqxCWbFqC5mnSmZffW//2R+7qoaOSJEmSJO1YBlja6SbIwqsIGZAMPrw6SwJ5TpLOHh17/umPAke676okSZIkSTuTAZZ2tPDld4zV59NLyLPBTxtcUUI5m6FZn317+Mpdt3fZoCRJkiRJO5YBlna22umJZj2cRzbMaYNLJZDXqYbpgzQnPw8c7K7hgTsQfvuWc8Nv33RshH2QJEmSJGlNBlja2cpcMz6ed5FNrWfa4HISaEwxN1t7S/jauz7S5ZMGZU/4w9veE758x2/V91QerO3e/bXwlTv+Q/jqWz8DnH03RkmSJEmSRqwy6g5II5Wmt1VDDUhW2WgQ0waXbhfXwtpdna5SP/MA8CXgyS4bWI8T4at3/g9ZykeTZm3/eN4AAnl9/Kqsuuut4Y/e9gGenfto8ok/nd+AvkiSJEmS1BUrsLSzhexqaC3gvvwGXbaz1rTB5dorQWOSbH765vDgOz4KlLvbWf/CV27/J425uc+WZ57aX5r8Dkw9DFOPUJr8G6qTP9hFfe5uju36vWH3Q5IkSZKkXhhgaUcLebhwla922cg6KrRCQjmdKlM783H43y7tsqF+veHUK5P3j9WfhPlngCokrQdlaLwAL/8d2dzMO8NffeRHh9wXSZIkSZK6ZoClHWzv0ZDkB7oPoJaz3umFJWjOktZnXh+++Pv3rKMja9kXvnznTx7ZdaZCfQqSsbP7loxBSCnXnoaXn/8x4Lwh9keSJEmSpK4ZYGkHu/eakM4eXD5b6vKuhD1PG1zuy4FKNlUir382/OmnX9NNi70Kf/eTd1I7dQ+zL0LSufTdkr4lVaifJqufeVP4yts+NIy+SJIkSZLUKwMs7VizX3n+opDlBxZ/NtBVKtXXmlcrSEpQnyatzVzB9Pc+302rvTlxPk/91Y9l86ePEjrf8iv0LalQrp0epzn9E+Hrn71g8P2RJEmSJKk3BljasXY3nztUrpB0PQuwsJ41r1baLkmo5Gdozs++H+6/vscerd76ly55R16fvbmcz9JeJ361vpWgOUl9fvYamo99eJB9kSRJkiSpHwZY2qnGIJxMFt2BsMtpg13pdbsSNOapMHde+INnPgns6rKBNaWN+U+W8vmj5Gn3fQuB8fwUU2fm/j5wYM3tJUmSJEkaIgMs7VBXHqU5fwVZykimDS63XVIiqZ+C5uR94Y/uvrnLRlbfwx+97aN5s3Y7jdO99S0pQ+0Ue5OpC8OD7/gHg+iLJEmSJEn9MsDSDjWxh7R5ASHvbvNhTBs8SwJZSlabOkLj1P3AeJeNreQIczM/NZacgSzr7ZkhQDJOqfESzL/yQXjP69bZF0mSJEmS+maApR3qyt1U8gOjnTa4jKRMOTtDOj/7gfDVO9/TZYPLthS+8a4PZ/XpW5h7JS4U362FsC6BrEZ95vSV4cszH6K9gJYkSZIkSRvKAEs7Uvjq6WPQ2Nte/2q1jbtqsds9r71J2qDSnDmUzc/9HFDpsuEl7r6cyRfvKzVeqfbUxFmVZmXG88mE2uS94S8++Jr++iJJkiRJ0voYYGlnqp++pFFLD6yZJ3U1dXCA4VUIxLsAnqZen7vlN/7Nuz/WZeOdSuELL36wWZt5Y5LNQ9JFSLew76ViFVZam7mU089+vI++SJIkSZK0bgZY2pkac8crYY3SpJGEVxBDo5zdpTPJvVdO/QRwrMudFA0dbTTqD1SZmyB0ufbVqq81oZKfZmZm7jPhsU/f2FtfJEmSJElaPwMs7Uy7wuHSSis6hdBFeNXlnQsXtl1rk7PvSMjcabLG9E3hD+56V5c7ik198c33VELzNTSmWPMt3tVrTSCtMZFPncsPH/8sXc273LT2AtcC19NzMChJkiRJGpU+19eRtrJwlPyKayHlrCxmoFVXXW670j6TEuXaqXGqE5/7T+F3H3xf8uEnu9jheY16+vNj6YutdlfJmrq+syJAmXJ+mubMnvd//Bc/8h9/62d/54s9PHkzOBAeu/deSskH5mabV+d5qEzsqj5frvB1ypVfTU7++0eALm9JKUmSJEnaaFZgaccJD/7IgbyWX0G+ZHrdZgqvgLgW1jS16ckb3vvlX/ixLnZYDQ/e+flqPnmC+gyrvr17Cq9asibldPLc33zVU/cDR3tvYGSOhYc/8QuTU7VfJpt7x+7KzIV7q9PHy0y/Lq3VfoZ6/XfD459496g7KUmSJElamQGWdp7aqV1ztXBscb602cKrQsKuZCppNur3wccuW33bn34ttcn3J81XIKmuc7+LntD6t0QpnyGtTd0VvvmBq3psZFR2h0cf+J+bWe2TByovJ0w/AXPPwPxzMPM0lcZzkE6/mjT8Y+DSUXdWkiRJkrQ8AyztPMns4bFqXl3IZULoIm8aRXgFkEBjimo2c3n48nOfW2XDifClb/14c/bM1aR1Vnxr9x1etfqSNSinM8d56en/FjjUY2Mb7Uh49IHfbNYnP11tPpXQPA0hJ06rTIAA+SzUn6U+//IN4dGPfg4YH22XJUmSJEnLMcDSztNI7q7SAJJNOG1wmbZCGWovQF77UfjQTctu+QdvvSqtzX6kms0khGGEV4UySXaauZnpO8KDt723xwY30rHw8L2/ljcn31fNnoOsASy3an8JQmA8TJZpnL4OwoGN7qgkSZIkaW0GWNp5cl6TkHaZS404vAJI4l0A87kzR8NXTt+7/Obp5yuhfjSkcwSSs2+SOJDwqiXLmWDmwPTLU/cBe3pseCMcDA/f/y+ajZl7So3nIVulIg2I1VgphPnj4emfvmiD+ihJkiRJ6oEBlnac2Vrzyr4WMV/VkMKrQjJGqf4SNKfuDX/4I3ct+erVU1Pzn2LuOQjJ4hb6eplrPSkhyaZI8plbufuuu/vZwxAdDY/e/6uNxuT91ezZhLxGd5e5nNnZ+XM48/AFw+6gJEmSJKl3BljaaZIsNA4OdtH2IYdXhaxJmHnlKM3pfwC/vLf12fHw5Tv+p/2lU6U8TdvVV50t9RTWdbewPHnO3sr0RPhvzvw4sFmqlo6Ehz7+f2f1yY+O5c8l5A26u8QVrznZR146NsT+SZIkSZL6ZIClHeZnb6yQ7h7cou0bFF4Bcf2pSWrTk7eGL/+/dwGEP/vYu5k/c2uYO00IY4Q8IYT2FMIw8PCqUILaNHlz5obw4K139PDEYTkcHr7vF5uNmXeWsxcga9JTeBVgbKw0Rrl08TA7KUmSJEnqjwGWdpQv/runLy3lawVYmzC8ChBICGmdXaXpCfLazwAVTj310XR28pw0DfFmiq1HHtoL1HfXhR7nGobYcKkxvZ/Z6fvgwaO9NTBQB8MjP/qv0mzm49W8WPMq6eJpi19ziaySNecuxeuiJEmSJG06DtS0o7zz+NMnd02UVslrNmF4tWi7MvnMs9CYuzN84e2/1Jif/gD1VwihQp5DyCDkQN7afeh46rr3X2xeNFyC5ivMz07fEb7wj36mt0YGZn94+BO/n6eTn6w0ni6TN+knvCJAuZzz0ivNi4HdQ+inJEmSJGkdDLC0s4TmUUhX+mK3jXSxySDbav0nFIVPVbLJZ2i8Mv/ZpDYzkTYz8jyJj9a0wfhIuuhGP+FV5/8nTCSzlUZ99gNs/FpYh8Oj9//bLJ15a6n5POQpfYVXhVKgMnHoAJvzzoqSJEmStKMZYGknOUyWnlw+6Njc4dVCMVVIoFQmn5sjf/aZSjZ1GqgsVF6FHPK8M7hKVqnC6mPa4FnKkE4TGrVrfv2fvOV9vTW4LrvC9z79T7Ns7mPl9DnIaqwrvALIAvvGZ46weRallyRJkiS1VEbdAWnj3HWU5lNXkmZAuePzmzS8KrZL6FiUHfIMstMJof4SZGXC/iRuk7S2TdprYC0k1MnSeGedlVed8sA4L3H/DXs+9wBXfAMe++veGu/Z4fDIJ343b75yR7n+ZDwgPd1tcAV5IMlr58JNV8FffHMQHdWaSnSXPCqewHmfzx0HLgMuBS4BzgEOAE1gFngMeBL4HvAykK2zr9KwDOKa4fktSdIWZYClHaQ2QSkcJqfj199NHl4VzQaAWFmVz0NoAKUypBDqEMYhCQkkgaR4ba0wK1ZhBcJCiDXA8AqAEtTnaJanrgpfOPfu5N1DDbD2h4c+8StpY/aOSvYi5DkDCa9am4yNJQmVMwdXnGWqQRoHXksMU3o8KXecBHgB+A69hVgJ8GrgjcCVwL7W8zPiXOoE2A/cBLwBeAX4ZuvxyoD6Lg3SZcDl9BfmJsTQ9jvEoFaSJG0xBljaMWa+f80RHvpitZ3wbPLwKiye/RdCa5H22bBos2QuI6+2KspKCXmr8iqEmO+USrRf8kCmDS6nTDWdTGD3B+D3fwve/3hvO+rKnvDIA/8sy2Y+XMlehGyedU8bXKqUE/72tceTVz/abx/VvXHg9cBV9F9ZtFOUgb8D/pbejtUtwJ3E4Aqgtsw2Oe0w63Br+8uA38ZBvjafy4G3s/JilqspAfPAM3huS5K0JbkGlnaMPQ//7ZXN+dr+9py8bowuvKIjZysWZM/nISzKbQJJCsl8IG9NLyRLFtbCKvbaquVafGfCNbvRw8ZJCZoz1Cen3hC+8D/+LIvnaA7CeeHhT/xGszn9+XL9qTLZLAMPr0ggSyGbuhY42F831YdiSpCPtR/dqgLvAT5Mu+pqreArEEOBEnAF8PdwPThtTv2+d3p9H0mSpE3GAEs7Rz53fikPPVQdjm7a4ELTrfCKVvVVPh06gq3WtiUo1XPIWovkhNaC7qEVYoXesqhFbfciJIwzzdz0/D3hW/e8qfcGVrQnPPKxX242Z99fzV6AvEF3+VgfryHPIZs/gQHWRgo+unp0qwrcBtxKnC7Va3VbaD1vD/Bx4ppZ0mbRWULd6/un1/eSJEnaZAywtHNUG/vLXZ/xIwyvOqqvQus/AcjnQhxWJmfvOwmQNMJCWBVCAq0QK+S0QywgrFWA1tev9yFWYaXzjCe1C175wQ/u6aeVZewLDz3wz5rN2j3V7CVozjGwNa+WkwPl/ACwu78GpJG7BHgTMchaz9TMJnAucRri3vV3S9oUrMCSJGkLM8DSDhGOwvzV3d18aLSVV4uaL8KrJuQzq++7nIa4qHu+/KN4arJqeNXPH6gXb19OT3F4V3Yf7Lupx4aWOh4e/vj/njHz+WrjGUhnOxfz6ro/XQutg51k+8JjP3uyv0akkSoBtwNHGMy6YgG4GngdDvwlSZI0YgZY2hHCtz55LvXmpQtJzspbdtHYoMOrJU9pVUgVlVR5DmEWaKzeZpIFys0Q50jkcSoheViYUrgwnZAVqrD6mTZ4ViMlSOvkzcnj4T9f/gD9D3rHw8Mf+78azZl7y/XnyuSNWOHVc396l6fN3TQffzXe5EJbz1XERa67Seq7EYiL7V8HjA2oTUmSJKkvBljaGV56/ODcPMdXD2lGFV6tXH0FENLW9MFVS6eipBlIso6ph63F3xcVVi1XZDWQ8KroRJlS/QyUGu8L3/hgP2thHQiPPvC/ZlntnWPZKUjnhx9edbz+rJGP05w9HwMsbT0niUHTIO/qGIhTCY8MsE1JkiSpZwZY2hmyqfEkhN0rZxybILzqWPsqitVX+WyARndtJiFQqoeFta/aC8EXVVlJey2sHnq5ar/P7gXkDdKZyRNMPfU5eqvcOBK++4l/nYfZz5XrGzVtcPFzS4QSSeM8rDjR1rIHOMHgF6kOrbYvHXC7kiRJUk8MsLQzpPVbx0rFCuhLbYLwqnM3ReVUDqEBYaa38Wi5mZGk7amEIU8W2osLuyft+oxlApx++r1ML6jkZ5ifmXx/+IM3fbTLhveFhz/+m81s9tOluWeq5PXhVl6ttJZYApBcwmPhnP4alkZijOEsth6I1YjemVOSJEkjZYClnSEk15RIOTvAGtWC7eGsTy3M8GuFTXmAfDaPYVNXK0m12y03c8habbQqsfJiPa282Cr0GP30uMB7ljJRmttH2vg4UF5j6wPh0fv+ZZbNv72avwRZDZK1nlL0qQ+rfU8TIGscDXzkwv4al0ZijHjnwUFXYEF8V1iRKEmSpJEywNIOEEr1erj87Jloo7/b4HJfjjfDC4RmHhdv76PdJA1xGee81WaexPipY02sNdez76Xfy26bQOMV0ub8O+Dmd63yhEPhkXt/MU3nPlNuPtvltMF+7pZYPHWt5wVq9ewQ0y8d7m8H0kgU7/hhCENsW5IkSeqKAZZ2gkozCUcXf2qzhlcxuAk55NN0OWQ8u90kh3IjJ+TJQhUWWTFjMBAygFaYtd5+r7htQshSKvVT1fD/NX8WmFjmCYfDQx/7jWZj5pOVxjNlsjprX5YGs1j7qpuVqrs4cPx4/zuSNlwDqNH/nT9XE4D5IbQrSZIkdc0AS9teeOSBa0t5fU/HZ7p40gaGV6GjniiEGDA1AmGeLoaiK7dbSgOlLMRQLHSEVyGJhVlhzSbW+uKq28b2K1A/Den0m8OX77hnyRMOhEfv+5U81N5dzV6M0waHeUnq9nsaoJJk49ROvXZ4nZEGrgnMMPgAKwFS4PSA25UkSZJ6YoCl7e+JJ19D1ty7sEL6Wja68qrYJO+4W+AsXVRfrd1uqZkvugthyCDPQ9xXsaD7ii31O0Vvyf+GEvnUK3upTf3E74XfKKblHQsP3ffLzcbsx0qNZyGbp7vL0bCmDS7eRaWUVfL67CXENYWkrWAe+MEQ2i0BU0NqW5IkSepaZdQdkIauOXthpUw1hh9rFCeMYtpg64PQmtKX1yDMDWb/pTRQagZCFUKp9bQ8ISfEG/zl8fMJEJLOo7OOOxMm7cMYM8MySTbD3JmpN3/gP/2bTwO/Fh6999ea9dn3VbNn6W7aYD99Kp7W+2tJyjA9y3nAOLGyRZtTQrxBwDCmzW0mZbp7nY8Ck8A+4ppYgxCAH7balSRJkkbGAEvbX7l5zliFOAlmNSMIr0hoVUMl7QqsmbDGnQd7C2RKjZysnMSAKk8gCa3F3ANJa92tJOloM4Qe44D2c8OSZmgtGp9lOROVqbG8Nn5/+N79t2X16fdWs+d7mDa4UeEVxAQuZ2y8fBiuvAAefbS/nWvIisqgbxFDxu0cYpWAF1g7lHoW+A5wC61cegD7nQL+CoNcSZIkjZgBlra7fTQbJ9cc345i2mCx2xDIW+VPYR5CnYGFV4RAkgWStEQoxTCJPCEhtO5MGFoVU/FzJL1XK62w24XwKs8hzzKaSYPSeRdcExoz15Wbz0K+2SqvOuQ55I0jcOgksapFm0+JuObTN4ghy3YOsIowqpuT+i+AS4ALWV8VVite51vAY9RqHFkAACAASURBVOtoR5IkSRoI18DSNnfbEZqNE63b7i1vROFVse+i4ClkkM+GVda+6i2QaS8MD6VmWLgLIcU6W0XFF8UC762vd123sbjyavG0wXZ4FbKckOeULrmOypHd5XLj6WRTh1et51eSfO9nP3H6vPU1pCFLaJ9IYRs/crp/MzwLfA2Ypv8/UiXAGPA48CdYfSVJkqRNwABL29z8gSxkF6wYCo0qvAoQWulRCJAHyOcDocYKdSQ9hlediRKQpIGkGeJIOLSDrRASFm5J2Dlc7uYFLOwLkqT98aLwKk3Js3mqV72VyrFDUH8G8gabOrxqLUxW2RX41X96+7nrbEwahW8Dv0OsTBujt+q0UuvxEPCbuPaVJEmSNgmnEGp7u/aCI+XS87uXzUJGGF4V28a8KGlVX63URB/h1TJNlJqBbCyJS0GHhJAHQglCHsiBUrldfJXQ+cHKfSnCq4W8bFHlVUaelKhccRvlcw5A/dm4Qv1mD68WZJTqz7xqnQ1Ko/Jd4hTCO4GTxJ/3GSu/uUrEq8Ms8OfAnxKruCRJkqRNwQBL21r4Vy+dzE7VdpWXhiajnjZYPCXEhCjMB2iss93VJMS1sJqBvJTEQCtPyPOcJElIQiCseEfCFV/GQngVP7E4vAoho3LZzVSOHYba08TFvbZKeJVAmkGYvYJ4RzcH8tqKHgGeBG4kLux+ANhFe32rYgpmRgyuXgR+lzgNccXJzJIkSdIoGGBpe5udOpFlaaXcmcaMMrzKF0+9C0BIW9VXZ915cACVV50SKDdyQqUc91sOkCfkpXg3wkV3JAytMGtRFdbZ0wYX1tRqfS5OG8zIQ5PqFW+lfOxgnDa4pcKrljyHpHExsBcDLG1dc8Q1sf4YeC1whBjKHiCubTUDnAKeAJ4ZTRclSZKktRlgaXsrcX45KbFQTDDiyquFZwSAVsXSHLH6apjhVSEnroVVaoVQreWhQ5IsrMmVh4RSEjq6sPK0wSK8IiQLdxsMBCqX39IKr7batMEOObA3n4BwEJLn1rkTadQy4Dsd/z8GpFhpJUmSpC3CRdy1nR0g1E6UF+5RNuLwqmPzhfXSUwgzYUlTA5o2uIJSM1+4I2HIWwvId9yVkM7uLLkj4fKVV8lC5RUkVC69icrxQ63wao6hhlfrPlarPT+BtLE7PPJj161zJ9Jm1MDwSpIkSVuIAZa2sd++gMbMxXFxp9FXXi08q+Nuf2EOQpNlp+l113Tovvqq1X6SBUqN0M7U8mK3ycLHISQs3Cmx42UsV3kVcsjTjEBO+eQbqRw/DPXnIJ8nrgm9dp/6siQU7KOBNb6ekNabu0hfuByvlZIkSZI0Ug7KtG2Fr/36kTTNjxK6LTIYYngV2uFV/ExC3oB8prOtIU0bXNp+EquwkqIKKyTtKqzQWqary/Aqb4VXOYHyZW+icvwINJ5vhVdbcNrgUlkok82ewOnWkiRJkjRSBljavubyfXONsf3dbTzcyqtF61sFyLM4uy6kxdeGHV4tbQBK9RDXv8qBPGl1N2kVrHUEbwsLvHPWtMG8mRFKFconb4iVV43nhz9tcKPCK6CcAKX8AuKi15IkSZKkETHA0vaVPXlyrNLsonJmyOFVoLMQixASQhPCfG9NLtd0D89a/L8JlNK4FlbRZhFKEcLC/xfPCgkx7Gr9T5w2mBNCSunEdVSOH21NG9w+4RW0ssW8cf7n6y+fs84dS5IkSZLWwQBL21QYpzH1xnKol2P6suJ23bbXw67PDosWmmiFQtkshEboufoqFGVQPVlh+wClek5oTSUkD4QskIdkoTIrtCqzQhFeZUmsHkvj3QbLl99M9fxzSBrPDX/a4Lr1sd8EQt48/kuPf/r8wfdHkiRJktQtAyxtV1Xy/GSltFposQHhVcc646FViZU3IMyF9gZdN91P8LP6c5KMRXckLB55EVwteiRkoRVeJRXKl7yhPW0w24DKq3VVX/X/3EYa9hJmrcCSJEmSpBEywNJ2lczU9x1KkpWqr4ZQBbRSwNI5hTBAmAVS4sJSQ7V2+0keKDXyhRs1hpC0P15UhRWnF4YsI4QG5Yuuo3z8KNRb4VUyxLsNrlu/+43fuFKJKkm4dKBdkiRJkiT1xABL21L46u1XjlXmDq3w1V5a6nKzZbYLxCmCrS/lISGrQz4bYNXKsKVNh/7vONiFUiMnScOi0CpvVWHlWce/zYw8lChf+hYq5x8laRbh1ZCnDY6k8qr9vCTPx8maVwPdpHSSJEmSpCEwwNL2NHf6NWlz/kC8xV6nDQyvWl9aWPg8gzATIBvttMGOxhe2LdcyQh6r1UIe+5pnkGcJedq622BSpnLpG6mcf6Q9bXCY4dUIpw12NlEpk5CnJ/B6KUmSJEkj44BM21NaPz/L8j3tFdRhw8IriIt/L9ks1IHa6KcNniWBJIVSUYW1cEfC1iNLyfMm5Uuup3LsENRfgGx+yNMGN/Zug6s+txTISA5BOLCuLkmSJEmS+maApW0qnDNW6UxYelmwvYtt16gOWvhSaw2pPA/ks4GQsThTW/H5vU4b7OXuhGf3PQBJPY9VVyEhy9rTBrMcKpe/her5RyF9HvLZDai86u+pvR2HLp8bAnkejoTvPXB5v72SJEmSJK2PAZa2owmScNl4NV80TW5t66y6WtpMgEASw6ha686DXYZXvenxLokdmwc6Xk4zkDQga00fzJoZeYBdV7+ZsROHofFMrLxa87KxjhBpZFMGV3lunpM202PUn7lsHTuQJEmSJK1DZdQdkIbg0Oxc/bw95ayHpww4vKIo0gpxUfSZ0F7UfdXmhxheLVtdVOwXCAmleiAtlwihCUnKxGveTPXYfqg9D3mNoWbemzG8AshhYowKVFa4KYAkbQoJMEb7hhMp0Bhdd9RSAarE708G1EfbnW2pTDz3i1vnNInnv9anuJ4kQA7URtudbWN3x8cNPFelnhhgaRvat29+vnlsz94RVF4li2cXhgB5PVZgrZX9DD28WrJ5Zx8XkrU0kNRT0nKdvdfcwq6LjkD96S7Dq612p8EunxuAsQDVk8fWsSNJm1+VOPDdCk4Ah4A9wASwlzjY3EU7wGoSw5I6MNf6dxqYAl4A5je2y9veLuA4cJQ4QC0e48TvDcQAa544aD3T+ncSeBqY2eD+bkXnEc/7fcTzvnhUiMe/+DNhnfb5P0MMXmaBl1qPXv7CuROcTzyue2lfU8Za/1Zb2+TE60hGPGeL68oZ4L9ubHe3hDJwCXCAeG7uaT3KxPO3+LN2jfb52nmuTgJPbnSnpa3AAEvb0I3n7t/32CHyOdaeszeg8GppkyEQQkJIIUyxZvXVcKcNLre/zn/jivN5gJA2KeUJB+66k/Hz98HcExCa7MjKq0ICpA3g8RvXsTNJo1UhBgnHgSPABcC5xIHEGHGQViUOJDLiBaJGHFCcIQYMZ4BTxABoIyoRikH50VZfLwWOEQeau1v9LaojaPW589a7Scej+HpGHCg1ab+eZ4gDpZeJr9dga3Ul4vE/1npcQjyf9tMOq4oQMXQ84OzvSUY71JoGXgS+T/yevEwcyO606owq8TieQ/v4ngscph1WVWj/YtKx6uiC5c79lHje14jhwDPAE8T3wPOtz2+VALsfxfXkCPG4Xko8xgeJwdXS4wrxmHb+slTi7OtJSgyyJonB+A+I5/FOOX/HiNeDo8SA9STxfD1APF/LLB5vL3edXnrMi+t0ca6+RLwunGp9PIPVtdrBDLC07fz5v08vKYfGOGHjw6u4aWitfUVc+6rJ6MKrZbZfLrwKAUKaEpKMiTe9lfHje2H+2R7Cq2205tVZkrgwGNmlxF9E/MuttoKi+mM9b5QzrP98LxN/ke9iBcBlBeA0/b+OCrFa6VLgImKAtY/2lK6l/ZpYpo0ceAPtkOFp4IfEwe+LffZrNWViRcSVwIWtPu+nPUUKFg/Ie1G85qJa6BhwFXGg+QpxcPQocXA/jNe21Z0gDlBPEkOrvbSDxGKw36S3wWXx/ZggBgpXEs+zF4jB4sPAc+yMIOBC4FWtf48Srx1Lw6qc/qZhJsTv017iNeA84HXEMOBF4jn/A7ZfNdw48bW+inj+HiWGVsU1EPo/rsXz97Ye5wOvpR3GPgE8Rjy22y0cnCAe11fTPl/3Ec/X4rjk9H+dLs7V4rheTQwKXyYez8eI14Uz63kR0lZkgKVt56aDZy5MpxtjJKuVPa1nTLdKiyEsLIweMmIRWL5KN/rbSw+bdxde5VlKntaZeNNtjF96GGpPQmhgeNWSBdiVn7OOnUobqQJcD7ye3ge9gfjGz4DfIYYa67EP+CBxcNrron0lYmj028SApVcXAm8CrqAdWnXKz3rG8pYOfI8D1wH/BfiPffRrNVcQB9WXEgeZxWBo6V/t+1V8DzqDyYT4uvYRB7ivJg6Sfgh8nVhxttMdAW4hhkudg//ieK4nXFp655MyscruEHAZ8X38OPCXwFPr2M9mdjnwRmIwuJ94fDtuiTOQPxwtPc4J8f3VeazfADwLfBv4awbznhulq4k/C04Qw8CiYrM4Fut9fctdTyrEarnDxOvYDcRryXeAh9a5v83idcC1xONahFYw2Ov00p+XFeL38ACxKvH1xJD7UeAbbL+AUFqRAZa2n3zfiVI5h3wA4VWXIUtReQUQ8lh9lc8R7zxYXuk5w5w2ePa2K04bbDahMs7et91K9cRemPsB8XcRw6v20xIo13fB37sRfuHP1tEBaaMcJf7FvZ9fakvEAfnYWht2oUoMZcbp/Rf7MrESYoWr6LIqxJDhbcTBRYX4WpYbEHQrLPm4WNB4UOuT7CUO4N9KHMAnLO7z4P/istjSfexu9eNy4Fbgu8A3ievcbPXphcWUvW4Ua9jcSgwCxonfl6LSaljfl862K8TpSOcBN9MerH6frb8Y/G7ie/UOYthcXHcGFQKsJSz5t0QMBw4D1wB3E0PqPycG+cN+Hw7KIWIIfSsxbB/l9aRKPJ7nEIOsp4E/JV5Tpofcj0E7RKwuu5l4XCFeS3I27nztnIq8jximXwXcSQxd/5I4HXa7V2tqhzPA0nazmyQ/L0k6/zDaafDhFUBCWLR4OzmE6bBiBrR51rxKCTSZePMtVC/cA7XnYucNrxZLErL52lh45PQ1yVUYYGkrKKYu9POLbOdAchCKdVJ6/SW/eA3dKiooriEulpsxnHVCEuIg4bEBtHMZcfBxMXEa2SCPe7+K6YkpMcS5jlhJ8Rjwh8S/+m/FypTiLoDdnBOHidV7byQOEvudtrZeRfVRRuz/lcTpRA8Rg4CnR9CnQbgCeDMxZN9N+xoxap1hxH7ie/NVxCDr22zu0GWc+F59AzF4rTL660lnpVdCDCrfT6xg+lPi9NjNXjk0RjyuNxCv051/FBmlznN1N/AWYnD5HWLo+vKI+iUNnQGWtplPXUD2lRPJsiHJEMKrACSh/WetkMSf1LNhgGuf9x92dU6iPHvNqyYhb7DrxtsYv/gA1J/p8m6D/fRpvc9br/XuN4EsS2i8fNFAuiOpG71Mvr6FWMF0kHYAN0yPExfX7VcFuJ0YkhxkcNOkBq0YIO0lDjovIA6O/pjRD+D6kbJ2EPUq4B3EwXYxWN0MinNkDzFYuxj4KvBXo+xUH64H3kM872HzHN+litDlAtprk32RzTmN8zDwdmKF0ATtEHozKfpUIVZ3HiNWen6RzVtNuB94J3G6YHFcN+N1ugi4DxN/Dl4O/BExdJW2HQMsbTO14zRrx2Na0zn2GVJ4RVgIhIoUK29CmGbZoddwF2wPizYvjkC7Mqxjzas0JZR3MXHrLYxfvB9qT0BI2byVV+vY70DGWIFSDiTTlw6gMUmDcw5xqs+1bMx0joRYhfGtdbRxBfA+YiXNRk2XWq+ij8eADxDXX/k9ttZt3oupVCvdQXICeDdwE/H3442aGtSr4ofaceBeYmjxJWJl3GZ2EHgvMQjdKud98dtdlThV6yQxNPwTNuZOpGtJiOH9ncTpj8U1cDMrjule4Dbicf194JFRdmoZNwDvIk4d3CrHtQiyTgD3E6/T/5l4cw5p2xhIfYi0WYQHX9zfTEp7l3y2hwZ6DIyShSIsQkjitLy5Vha0JMAa+rTBFcKrzk/meSu8yuvsfssNjF+8D+rPQtjMa16tY78DCq8AkgRIsovhy1ZhSZvD5cCniVMG+5mi2I8x4HvE25n389ybiQOLC9m8AclqiqleJ4FPEl/PVvljaEIMHZYLHi4EHiCGAcVNDDZ7hVnRx9cT3wevHm13VnUJ8Xy5nq153hfhwBgx5HyAuC7ZKO0BPkQMw/ezOaa19aKoyDpOPJ53sjmuJbuBe4CPE0PXrXhci8DtWuL77pqR9kgaMAMsbS+N0+dCMrb4zsBd6jW8Kp4SOlbGTIkLt6+n6Y72+9l+aXgV+5i07ozYJOR1Jm68jbGL90P9ecjrdDdTZ+eGVwuy2rnh6W95N0Jp9C4kVp8cY2MHGGXiejj9eCfwI8TKgyZba1C0VIM4uLubWKWwFSQsf9xPEKvKXsXWCK46BeJrOpcYZrx+tN1Z1uXAJ4hTHrdaGLBUsYD/VcTXdP6I+rEb+AixWrBY222rahLX/3sbcRrkKE0AHyOuJ7VZpwt2KxCv0+cRA7m3jLY70uAYYGkb+dXdzJ25PsmaYwvT+7rVR3i16MMQA6AwA2FJHhQW5hf20X432y7p+1nhFa27IqYZoVRh1y13MH7lEZh/AvJ5DK+6byNL86Oc+saRATQuqX+XEP9if5CNHWBUiXfi+14fz72feLe1cbb2oKhTRjwmdxG/H5uhemI1RdjTeXE/H7iPuEh9ztYNV1LiVKePEdeX2iyuI1aAHGXrh1eFIti4kFj5dvUG7/8E8BO0q2q2WjXbcorqtrcRK59G4Sjw08Sqpa0yxbUbGbFC74PE49vL2pLSpmSApW3kgnHS+sVJCOWhh1cdy02F1sd5CvlkWHTD942cNtjeZ+e/CSFvhVdZjT23voldl+6HxtOuedVHG1kIu6jUji/7RUkb4WLiAOccNnaR4qLK4Ts9Pu8IMdy5ia2xjkqvimlAbwB+lLgOz2ZV9LW4wF/C4iq+rS4jhojvJN7prbz65kN3K7FKqbjL4HaTEhfN/ijxZgwb4fzW/i5h61ULrqWYWnozsWJoI8eoFwM/SVywf6tXxy6nCOffTaw23bv65tLmZoClbeRHKlA+Wk6GH151fiYU0/MmwzKVV71Y//ZLwysChCwl0GTXjbdSvegA1F9oTRs0vOpVkuQVSK8h/qVQ0sZ7D+1qjo2UEO86+Hc9PGcvcXrdtcR1l7bboKhQVDa9ljhFcrP+blkEWDmxWultxECgOcpODVhOfD03E++kOKoQ6zXEc7/K9gyvChmwjxgMnBzyvsaI60RdQJwath0V095uYuOmvB0nhjpH2bx3QxyEIsS6kXgeSVvWZv0lQ+pZ+NY7z6OUHOq6OHYd4VUxQzG0pg7mdchrrOMdtb5pg7B8eJWnGSFJmLjpZnZdeQ7MPwn5HEOdNrjuMdqow6sV2glQykOFtHEZhPEB7UxS924grj0ziiCoRAyvernT2z3ERath+4ZXhWJa1RuJFWebUSAGiRlxrZ0r2Z7hSk4Mrm5nNOuTXQh8mLiu0XY8vksVIdaHiSHIMCTEc7a42+qwJR2PUutR/P+w5cTg823EIHSYjhKn3V7M9gqyV1Ic21sxxNIWZoCl7eP5J6+t12tHuhon9LvmFSz8+C6WtsozyKfDQj1ACKGP6qtuuxJWfXlLpw3mScLEW97E+BWHofk0hCZDr7xa10vfpOFVS7mSQMgvYPOv9SJtJzlxgPF2RrOOTgLMAn9Dd1MAdxHvDPZmhruuUjGgLNMeZC73KHdsM8xBaGeI9SE2X6VqIFZY3EKc8lh8bhCKgf5y34vOr23E9wHaIdZdbGyIdR5xzasDDDdo6QxXOo95Z+DS+bVhH++U+NrvZTgLu99MrEgqMfjrydKgCuLraRID37nWo0F7et3S83vQx7ZYt+lDxGmaw7CbuP7dSYZX0bvWedp53Dfy2lAiTjW+aYj7kYbGQZi2j/n541mW7l7zsr/OcKl958EkTiFstBdu7y+4Wv/vIiEsDq9CmhKSlF3Xv5mxiw9Cw2mDA2knCVAt7QtP/tTB5CJOD2jHklYWiH8xfg0bv2h7oQw8A3y/y23fTBwYzDH4wWYx2Cmm7c0C063HDGcfnwlgT+vfva2Pq7Tu98HgA7YiJLoReAr4ywG2vV6BOFh9NfH33/WcS50D0GLa0wzx+zFJ/N53tl8mHvv9xO/DXtoBX7H2z6Dlrf7dBjwBPDyEfXSqENfeOsJwAoHOY54D88TjPUU8/5dO0x0nHuf9xGO/h/a4ZxjrR2XEBdZvBf7DANvdR6w+3cVgj2txLcmJ5+4Z4GXgNPFY1onncXGNmCCes7toH9cjxIBpotXmIM/lZqv9O4D/Z0BtFqrEO6gOq/Kq8zpdXBsmiefpPIuPUUIM04pr9b7WxxWGd50u1su7nfj97ufGJNLIGGBp+9h7xTl57eGJ+LvMCkHNOtelWpg62PGlbJr4o6Cvv5d025+VK5sWwqvWJiHNCJUy49ffwPjlR6H2LGfdGnHd/VmmE+uyBcIrgDynWc/OrZaevBr44YB2Lml5rSsbR4nTvYrBVj+SJY+i/eUujGHJowz8VZf7eQ2xwmd8HX1dTjEgmicOMr8HPEocYNZbj+Yy+6wQB2tjtAefFxDvuncRcbBUYbADz2KayjuIUy6fGFC7g3Ci9W+/4VURogTigPQF4HHgMeLxbxAH/8VaW53PqxKP/3jr49cSB9DnEiuWiu/BoAeqY8RgaY7hfi/eTAwHB70+U3HuZ8Rz/zngoda/RZVQnbNDqTLtc36MGLpcRzwHjrY+N8jzvqhMej3wXXpbL281VxPPk0GFV8XxnAGeB/6aeF7UiIFgUeVaBCeFpdMKx2gHL1cRr9Hntf5/UDesaBCrJb8N/GAA7UHs++3E79Mg329FNWwgHscXgL8lHtsm8dpd5+wq4oTF1+nx1uNS4AriuTqM63RGvBnKO4kDp+cH1K40dAZY2j7qP7xsolovka8Q1Kx3UfWw+OMAZPPAXCAk/UydG2x4RUgIWUaoVNh14/WMnTxE0ngO8nlIulnH1fBqTXkgz9IjlGYvHtDOJa0sEH9PuYU4yO/nTV8MtlLiAGKaOLiYpR00FFO7xomD3d1LHi8SB6RrOQi8l7hA+CAHm4H4V/JHW/14nO6rBoqBU6cfAH9M/Gv/tbQHSsWdqQYxQCru0PYR4FeI4clm0O8PjuI8micOTL/bevSyJlqDeN4VijDpBPA64vfgHOJAtvjJPggZ8f3zIeD/hKFUD1/C4Kf4Fsd8BniWGAZ8lxgcdqMIt6Y6PvcIMWB5FTHMuoj4vh3U8c6J15F3Ak8u2Xc/9hOnDw6if0X4NEsM1/4LsY/dXqs6+5DRrgCl1c5XiEHWDcBlxGvnevsdiMfzXcCvE6/f6/UG4s+UKoMLg4o/rjxNPMceIr6/u33ty4W+3yce03OJ4eDVxOmpgziuhaIq9TYGWzUoDZUBlraLI6fPzJ84tCtl2T+oDyq8CkVolBAyCNOB0NfPkC6fs8pmoePHV2iFV3neYNeNNzJ+6eE4bTAbcni1XRdsX2Xz8d0lqGSHBtQBSSsrBi9Xd/x/t4oL3wzwX4kDi2eAV2hXbDRo18+WWVypNEEcOFxCrProDB6WUyLeIfFYq/31Kvo0SRy4f6f1OgY5hXIW+DNiddlJ4oD+auKgeRBBRPr/s/fe0XJc953np6r7dfeLyIEACZKIBJgFEgDBaMkKFkXJsiVbthzG6zheT7BnZ2d3Zs6k453x7JyzPs5pvbI9kmxLlkUxKFimJEuULFJUpAJzAogMAi92qrp3//jVRTceXujuququ7vf7nNN8APH61u3bt27V/db39/shG67XAw/FbKuX5JDN6bPIWD0PnE2w/SPRazMirNyCjJtzHSWBC297M/BXCbXpGELyM42STH/d3K8jQss3kLnfqnC1HGXkfHoaEbBuBq5HhIEkQgvriBPpAPAZ4okkO5B5EXdcnRD+DPBlRGBJOszTRO2+iAgutyPi+HwnVyftbkPcfXFDktcg69EYycxVF9Lq3FZfJ1knk43aPonM2e2I2L0buTbG/Q7dd3MTIrx9M2Z7itIVVMBSBoXx2XKwac3wAv+ShHjlcSE/ubUe1krVwZYj85Zqv4PfuxAyaAEi55VvKd10kOLOdVA9DuEceJrzKvF2vAAY25tQJ5R4WNJLvqpkh3ZOVrf5PYfk/PkWsqGYZfENi5tHzqXleAXZlCyHj4RPXU8yZdjdpuh54O8QcSMJUWwxqsjm5RVkg3gfErKURHiNQRwZTyMCUD/h5tJZGkLf+RSPdwLZqD6DjNl+GmJiXNwcvxVxMbUyr1vlWkSwSMLN4lxCx4BHEQFrJoF2F6KCjPURZK14AxJe63JsxeXGqN1XO3x/ARnXuPna3I3gF4HPke4cBllDv4GsJ69H5pwTgTvBImNxEFnPO10LXT64zSST98oJzF8H/gF50JFmJcPJ6FjPIw8a7kHCC+O6sZxr8HbkQU+S4ryipIIKWMqAcOfE8MiLqy7ZO8QVr+b/bytqlQnAzBhs25fjZMIGL4hX1sMYi/UMxZtvobhrI17tBISzGjaYSjseBHWM9W5MqCNK5xjkifltyA1tN8p7p42PCC1Pkq5gMajkkA3Ft4FHkA1U3EWjFUHqcuTmv0AyTokQ+ArwCZZ3fiXJHOKe+AtExNpH/DAbg+RvuRPZHM0PZ8wqTkR8Cvg40vduYBEh60FEXHkrMr+SEBNdzrc3I/mjzsRsj6i9AyTjvnJr+LeBT9K9nDxlRBh5FQlVu4l4+fZAxnpj1NYxOvvu1iDOozjfuxvTrwD3x2inE16LjjmLnP8u51i7uHPxckRgbKWYxkLcgIjChRjyQAAAIABJREFUSTivnDv2y8hDhm4yFR33GLI+7KCR7L1TQuShxSHgU+iDQSXjqIClDAjB7pGCGcO4+zOSEa9s048LDiywZSvuq7jtt/lrzcnasR4mDDFBheHb7qC4ez3UTqUvXvUsbDApYh4/DAnC2u5k+qLEwCCJj9/Y644kSB65KX0OFbDaZQjJVfUo4iJKwgnVCj6Np/pxN0Z5xG3yGeRz9GoTcR6p+nUMcaV0uvF0hEjIyzWIgyDr5JD58xUkB00SeXc64WlEBHgLkvA9jovFESBhrncDDxDfMbIVqRTnXD6dngNOMHoCEQzTcl0txVngbxGB4E7iiViWRqL+f0S+x3ZZjzjw4uAjgk+vQngDRIwMkbXEhTIuR3NC9EnkmvginYuaG5HvdJj451Au6sff0duQu1eAvwTuRYS5OCK3yzd5IyKc95tbVllhqIClDAQP/MaZq4ZsTeazvfCfFlnid72LHU/WgjUWM2MbBarjHqOF37MApklIsx4mNOBDcf8hirs3SM6rYLaFsMGY+TQ7fnvcPJ5xSUg4C6Ewbgs03B5K72hSrAeC5gp5Smu4Ck7PIZu0IyRb/W85rkae7Md1yOQQJ8jHkE1Rr5+AzyHhRjlEJI7zhN9tjg4j31OvBKFWyCH9+zSS5LrXQvJpZE6cRkSnJBJPe0jY33eRELc4nAE+iiSg34sIBS4Er9X54iHz/WuIKNAL8cpRRr77GhL+Fkc0dMnz9yAiVrtcTiOhfyd4iBD7Rbrr5JyPRYpGrEPCCZda25zbqo4I6M8jjryTxPsMtyBia9wbwRziXnwAEXp6zSTi1hxB5lmcddoghTdehwpYSsZpJUGOomSeLfnVm/ND4cWZzVti6d91Jq4Lua+whHMWW6PFbWY7/VlYHLJRikXnunLilQ3LFG+8mdLeLVA7BuE0eMt1SsWr+Pjg1YDf/L4EG1U6xw7gS2kN95T+ReD9SNWnbopXAN9PfIeSE8MfRESTXotXjhBxg30r+nsccdUiG/J9y/1iD3HOq08im/5ei1eOKUTY+Xz097j37s69ejhmOyBj9BTwMHIOfg7Z4IOcF630NYe4zT5N+vmZWqGCOO++TKMYRCc44bbTOb+W1h1LC5FDKo5mITF3GckT9RoLj2kOmS915CHEw0jVwYeQzxBHvNqEOIviiIGuj+eQELssiFeOaSRU8yjx56uH5HJcl0C/FCU1VMBSBgF//+7NW+W618799TLXMRu1FjmewEIdTMtFkdu4TroM8Qv87+aQQWvABCEmLFM6fCelazfjhcckYfuy160Y1+1F+tfimzs/bubEK0QkrJax33vi9mQbVhSlTXwkJO1PSa5CWTscRJwnccIVPcTt8TDwWBKdSpgA2UR+h/gCVgFxYIwk0K+kcVXv7keEi6xhkJxon0W+kyRErGuR+ZsEBnHMPAT8HvAB5NycRUScHAvPn1z0vk8g4kBWCBEh8xvIvO2UGhI+20ko4CjxBAmQsOqscAwRsWrI/PWRueEjDsPPAP8f8EeIY+sMyTyQOIyIWHHa8pH5+QDJFkBIijNIddHjxIuuCoHVyDqtKJlFBSxlENhG+J2rCBMUr0DCB3EiksUYCOes3Doue6j4LrBLxCsLJgyxBAwfuJ3SzvVQO9GieBWDWAnbB0y8coQhBGe3p9O4oigtUEBcGw/Sm/CYCSR0MG7IZx7JtfRlsuu+O4c4gE4Qb3NkgS3AVQn0KUlcCNsjSA6mLPNZZL7EDZ+2yB7gEMnvBVwVuo8grqzPIkKKc0y6frtx/0e6l7C9HcqIsDZD52NkEefPNR28d6jDYzaTJVEQZF68iHy2KhLCej8ieH4cCV1LstDDBmTs46R7cA8ZvkA2xSvHSWQNqxLvnK4i4vbaJDqlKGmgApYyANyykers5tZv/Vv4xXm/Yi3YOti5hNpv/t1WnFdOvLI1SrccorRnE9SOS86rlk7jDvdFKl4tjPEgV92c3gEURVmCPOK4+kt6F3K0AxFi4jzVLyCbjgfpXtL5TjmGJJZvK/vjPAxQQhwpWSKHOMzc58syc4iL5UXiP7kKgO1IHrc0mEEEiYeA9yGOpmPIGLs8kq+SjRC3xThF/FBC6Ey0jSuOW2S+ZIlpJEz668BfIwLno0jYYNKh0z4SDreWeAJWDgmTfZzsPmRwfA0R2eLMV4MUEOhEdFWUrqACljIA1FeTt6tau+1s/drjnFcXxKQ5JPdVQu0vlu1mQfEqCLFhjeFDd1LasyHKeTWHildptrEUHoSzl8PHs5zPRVEGER9xXH2M3iUDLyIbo2E6X2x85Kn+XxG/Ely3eBzJ/RLn3tEiYWtZeQCQRzbPnyZZ50eanEHy8CyWT6hVDDAG3IzM6bSwiBD090h42IeQvGpTSILuXiZtb4UvEC80ywKXIaJAN/HIZrju14A/R+ZAmufcWiT/WBwh0IUOPkL/rA8PIedbp2uDcw3uQcJYFSVzqICl9D32k8XLDLaFm682xCu4IF5ZC6YO4exy728z59UCv79YzitrA4Zvu4PizrVQPw5Gxat021gOD8L6evv0R7Z24WCKojSwyBP8by33iykyglRci7vYPIE4UPoFA3wJcb3FcWGtBa5IqlMx8BHXxz/QSDzeL7yACIoh8TboHuIO2pBAn1phBjl//xLJd/TVLh03DpOI6NIpBskrtKrN9yXhSOq2aNYK3SpWshsRyjs9loecX1+iv9bpKUQshnhrw1ayOX8URQUspe8pUTm/2wRhYel1uk1nlPtjJCaZWbvMrUSaOa8spQOHKO5cJ+JVqGGD6bbRGmFox6md1EotitI9fMR98mV6W6nvOiQHVqdhKe6p/hP0j/vK8RwinnSKq8y2m3RdP62QQxxlccSJXmGR3FEvE98RtwYJJewmZeAVelN8oROeRRyfnQoCJdoXsMrEC2m1wJVk04WVNkOI07NEPJfsMSTnXL/xFLI2xHFhjZO9cG9FAVTAUvqfYcK5KwnNEtbudsUr23Bf4WHrFjPLErctbV4bW855ZTBhldKBA5R2NYcNtnI9UvEqVSwYS558eUv3DqooK54SUqmv1wmf7yJ+5cGnkLLn/UYFyV9TpvPNvIdUBevlxjqHCBJf6GEf4jKNiFgV4iUZL9J9AavfmCReWJaPuIHaef808XPOXQbc2OH7+5lNwOUx2wiRhwwt1x7PENNIeG6nuKqxccdQUVJBBSylz3myQGA257zFHlK1L145b7O1HjaEcIYlnrO3m/Nqkd9fKGwwqDByx92Udq+H4BiYMtl1XsWhz8SrCM+GeerlG+D5dp+qKorSPjkkdK3XgsMVwDriua/mECFu2ayKGeUVRHyLI5qsRhwSvcIDvks8N1kWeBp4nvgJv6+ifYfQSmIamfedjLNF1q81tJdH6xjxnKbuuG8EtsVopx/ZgYx3pzeHOSSs+HuJ9aj7PIsIr3HW6SsQt7GiZAoVsJS+5rT9q3Xkcuu9BW8p2r1u2Yv/aMHUosqDsdtfPOTfNotXLmzQt5QORTmvascgzLp41en7+1O8Ash71iM0V8H2Uk86oCgrixxSgj1ONakkuB5ZjDtdeArIxqIf3VeOGaQKXhzRpETvErm7QgDfpv9COOczi1Txq9D592GRZO47k+rUABIiFUM7dUS5hOrt7LuOE8/pCNLfNcCPkp3CCd3gSiSMMI6A9TRSKKFfeRUpUNFp8YEAyYG1JrEeKUpCqICl9DXrH3lwO6a69tJLVGdhfRciCBEnlJ1jke1S/LBBaMrl3hw2GFQove4WCRusHE1fvIotAK088QqAnAdDdo196l8P9a4TirIicK6lXrtlhpGQnDgLj4e4r/qdk4iDrFNHig9spPPNVRx8ZHN3rAfHToOjSG64OE6LPNlIrN8pI4go6l5p7G/m6Nw16SHidTvny3ngdJvvWYg6Il79FCsjnHAYCX3r1L3mISHiLybWo95gkHU6zvUqjyRzV5RM0YsbB0VJjsnz2yrVcFXpoqwC7YpL9qJ3OTOSqYGdjexRF90+dJBTa7HD2siBZcCYEBvWGLnzboo71kH1VTCtprZQ51XXkS9wDTy1lf52U/Q7cW/us4THYH2epPCQG/Fne9yPjcAWOneB5RHR5EhiPeodx5CwqrV0Ph4bkDLt3U7kbZDk7ee6fNy0OIucG3Hy1Vhko+oTL3F4UniIC2YYEaeGkLxGu5AQ3tVN/z/HwjcEHiLeBIj4NImsI88hgl8dca6Vo99Z7nPPIMJGp86eIu0Ja9NIrrwdHRxrPiEyfj+FPAj4EJLbKU4uv6yyhvhh3ifp7/BBx4vI3PbobM7WEGfml5LslKLERQUspb/x2WAsw43/0Zl41fx2574Kp0RY6li8WuJ3LxKvrNcUNnhYqg1W+iHn1QoWrwCspVoO1hdHKvsYDEdFv9LLanRJYxmsz5MUBknc3uvN1hok1CrO4vc8spnud84ggkCcSqyjSH6VbgpYzW6+DFxIEiFARJnDdC6uGESMvBzJ9dQr1iDC5lZEcNkS/X0c+e6c0BTSyM2wVBLUHDImI4gAfQ3w+ujfphHx7xSyvryCiJqLuVbK0XE7fchQiF7t8B3gduIJxQ7X993A/x61/Szyuc8gn6/f8YA9xHsQZImXAD1LPIOcM52uCyFy/ilKplABS+lvvKHLh3Jebimn06LMS3nlBCUsmCrYio0nXi0TNmij0EGpNlhheP8dlHZuiMSrOVS8SrONBDCWgu8NU6td1uuurFBySH6KxxFhYxCcSz7ylH8QNhJJ4SE30cfpbb6iHLKh7jT/lYdsJEaBOxPsV68wSKhWp24dV+VqHd11pHlIaNbZLh6zG5xEPtcmOhM6DOJ2Gk+yU21wBXAdUg1xM+JWcuH5IfFE38XGI4+EBG9Fzs0qck15BXHffIeLz/Ua8dxpHo3P1CqngSeB7yeZ/H8W+Zw+cAOwF3FiHUHm0Ankc/frg5QhRKiMg1vb7qD/7yssMm863e8b5KHNOgZvzVT6GBWwlD5m5wYTVHbk/dDHxHRe4R7leZgAzNT80MF2wwaXOGyzeGUMljrDh26ntHsD1I6reJV6G8nhFSwUbNybJaUzPEToeYz+LHOttE4F2Vj2cgHII0+ic3S2uXNXlH3IRn0QMMTb0OcRZ0k38RCBYrrLx02bc0hY56YO3+/yYG1EqjOmfa55iEi1AxFntnCxYAXpC9bz528h6sflwEFkzfki8pCkTO9CK78C3IRUiUyqiIX77D6NkDsnspdphKU+SkP0aiXMstfkkfDSuPP3dgYnT7RzK3ZKEVlXVMBSMoMKWEofc3p8crKwec1om9fTeQLOBfNWZES3lSj1VEfiVethgzYMsZ6hdOAQpV3roaphg/2FBzYA4+/vdU9WMB6Dc5OpLIyHCFi9FhyGkA1kXNwT8ZWOS+Q+1sVjesgGvN+TMy/GMeJVyfQRkXaY9MJcPUS0vDl6bUPOB5erqpe4c9Odn+uR6n33IA9KehV2ehz4PPAmRGRLUkRaKAxzBHHi7QbuRYS8Y0jhA+fSmkEcf1lbyzYgglwSN7tZ+2y9wAnbE73uiKI0owKW0sccHPdyT65qKy3KYmF9RLmvwsgA1VGh5NbEK6yHDQ3WVinefIjijvVQO5W+eNXX1QaTbCdBwoDJmWBvr7uhKAOME7Bme9yPErKpy+BC1NeMdvFYzrU5CDnIFuIlRAgq0fk8HSW9vUEeOATsR8L28mQ7XDpAhJpVwBuQCn4j9MaF9FXEGXYTnSfkbhXnzqpHxxpB8krtRG64yzRErVM0EuNngTFE5NN1Ojk8ZE1RlMygApbSt7z4N9NXl+reeMuuokXCBt0frIWwAuai3FfxQwcvzXkVYqiLeLVnM15wAsJZ1HnVjXYSJjCMD8dKYqwoyvLM0XvRoUi8BO7KpVjkyf4I3fl+PUQIPdOFY/WCKURciLPZHCadvcE64F2ICOIqHfbacdUqrp8bkH73Yg2YBj5BwxnVrXyA811pQ4hAtAoJ/wwRUWsScWZ9D/hG0/u6zTDtJ8pXlsZHrn+KkhlUwFL6lqHpk3v8odo4/kXJqhZmqdA+E4X0BWCmrVxyfWj5HqXtsMGQ4YOHxXlVPQbhHHi5Vg7UWn/a6F+LDXT5fWm1kwIGfAlhHUOe1CqKkjwu/0ovKRDP2aJcikU2nGmGrDXjIxvtblY97CYBInTEyStWItnN6gSST+j1yDlUo39Ds3qd/+ks8EHgPYgQCN1fj1zIITTGo4Scw5cjlTBriDPrZSQ5/AtIuGHaYeAe6QmwKx0XWpxlx6SygtDcIUrfYqr19YUhs/zlexEBp1G40MNaieCzrjZLy/cE7YYNBhRvupXi9rVQOwlhWcWrrrSTAjYSToM5wuf+1Xt63R1FGVBc3qJe49N5KXJlYVwlwnYrs8U5XqVLx+oFASIExpmjBcQRlwRXIa6r70POnyp6/sRlErgfeIpGHrleY2g4saYRAWsdEir6VuCngHcDd9F5kYFWyCEOtX6vHJg13DqtwqCSGbKw8ClKR1xx1cZ1+Ms8yFvmVslGApMxYGZts6rVGu2EDQZlCjfcQvGazSJeBTPgadhg+u2kgBtbz4NaBb/ygiZyV5TBxkc2SEpyWGRMuzWurppahi8usXACVqcbeJeweTiBvmxFnELXRv3pV9dVFjkJ/C3wRPT3rAkLFpmLdRpVDvchCeF/BhG1VqdwXB9xg6WdI2wlUkCvf0qGyNqipyitsoXy+b2YkEXv1ZYK7bvwH3Ff2WmLrYCEI7ZAu2GDPozcdSeFq9dB9ag6r7rWTgrMH9vAQmFaE7krymBTRJ/sp0G3BawK2XD0pUESDiznNIzDTYh4VaR7uZpWGueADwFPAm9DQrxcbrEs0Rxy6CGVHd+KJMX/OlLd8SWSmSc+Ir6qgJU8eVTAUjKEClhKv7KWsLwJs0j+q+XEq+intWDrUQHANMIGjcFSo3jzIQpXrpVqg2FFxauutJMCC42t9cCWVyE3622UxFQUpY8YI3ubw0EgT3fuRd2mtte51NIkJH6IpEc8ofZ1iKAyhIpX3eB7yHd+G+JyGibbbjeDiKw+MleuBL4DfBlJAh8XFVnSIYdGbSkZQiej0qf8mwlsuFYErHm0on9E7issmLLFVm3rt2wthw0aTL1M4YZbKe7eBPVTEMymGzYYW/zptXjU6+MvwaLCoA/B7Hr40I1d7Y+iKN1kNZleoPqSXiSgHuQQQoskWe7V59sGvBOpUNcNEcWJbS68N4eIoUMLvNy/+9FrkNyULwIPIVUKzyFhdFk3KLi8WWuQxO8/iuRMi4ObC4qiDDhZX+AUZUEe/sANm8lRvORatYz76ELooAVjwdTAtFoXpe2wwRzDd9xFcec6qBwdYOdV3Pcm2UZKLDW21sPUwnX2xY/t9K7m8e51SlGULqL3S+nQHGLUreMNMt0eT8fVwE8Do6Tncmt2hzk3ncu15CqV1qKfTkBz560rFjBEIyG1C4tqbrNf58cU8EXgcUQQOoiE6/lk93M19+sq4JeQz/BZtKpz1sjqHFJWKHpDpvQjubeu+a/XhNO1oVzzQ7RWxCtc6KAHocXMgg1acF8tVsnQCVcgQoZBxCtbYfjgHRS3r4HqSTDVFsSrGNeGWOKVCldL0sLYGusN+bXXJrrQG0VReoOGByePR0OE6BaDHmLkBJluXlhXAW8EJkjnu3SuqRoi1JxDEpmfi/7+GlL9zrl65uddcm3kEAFrDHH+rEKq1q0H1kZ/LkW/G5L5m5MFqQOfB54BbgSuQ/JjDSHjk9Uw6DqyJ70D+W7+ls5ErH78zvqBkOzOHWUFogKW0o8MUy1facOwcSPaqoDjbmusxYZg5lqON7z0/84Tr6wV8cqEFUr7b6e4YwMEJyCcZXlXcz8KUCpeXcAzPsHcFciaOsg5VhRlpTJJvLAjD8mTp/ddgkUEhdkuHs9H3DeDFD7WjA+MEE/A6iQH1gFgO8mHDfrIOTMLvAw8DTyPCBvT0fE6PWZz6OEIImZtQpxAVyJVFD1ENMv4jcolWOA4cApJ8r4XuAb5XKOIWFQne5/LIN/J9cgDg/tp78GBJb7I4iEi5qAL3e3gQm5VwFIyg95IKX3I7xap//dtOXftbcN9ZAFrwBgIZ6xIDUveqtkFL/ELiVcmDLEeDN9+F6Ud66H2isQophmSr86r9GhjbD1rferV6+HF9XB1EolIFUXJFpPEW8zrwFeQjaXmaRE8RJx4rYvHHGJwBawcsvmOg3MxtcoO4E5kP5HUBteJaFXgS0hY2VmSfThkaQhgNeA8IpI9gYzjLuAQ8vlKyGfL+E3LJYTAq9Hrc8AWYA8iZm1ExEEn1NimVy+xyHd/AFknP4YkfW/1vXHmiIckxP8sIpDqOi14wBm697BBUZZFBSylD/lfJ/B/c60HLYsM1v2qsVg8bA3MHEvfxrYaNmjBBuK8GrnrHopXr4basTbEq17kvFLxaknaHNucBxizBeoj6XRIUZQeEyf8xm3IX0A2yEpvcC64QRWw8oibqFM8GoJOq9yGhN4lVXHQR0SI54BHgacSardV3Hn+XcTxtQO4G8nxVSTbFf6WIgBeiV6fAzYjbrP1wGXAOkSoc6JWu0Jmkjgn1euQogT3t/G+OEUanHPx28g4KYqSUVTAUvoO+9h9V/LKzIa2BRxrJfeViUIHl3RftRE2GATYsMrwgTujnFcnICyj4lWabaRIJ2PrATkm7Mn/p+BtSrxHiqL0njjhKc5VMIZcGDQUozesBAFrOGYbAeJCaYVtwE6SEzpcCP7nEefV+YTa7ZQQySV1EskndQ/dq7CYJnXgSPQaQnKXrUJyZW1FxK0NSC6qIUTQ7HYOJBfyewgRE59p4T0hjSqcLnl9u8d0IaWKomQYFbCU/uPYd7eF9drqVgPUrbNfWblnNXUwsywtXrUaNhgYLJbS4bujaoMvywFUvEqxjRSJMbbWBBPeuZd30v0nxoqipI+rdtZpfqEc8cUFJR7NIuIgkkc+XxyBrkproUI+cDPivkpC0MkhwtnDiHiVpZuFSURUexX4SWSMB0WEriPhmWcRh6irzlhC1qtbEBfaei7ODTU/WX4aGCRn3TuA30XEqaUIke8qTp8KSJ4wRVEyjApYSv8RTGys1adGh/M1lrtPs9F/rRVtwlgIJ5HL4kJv7SBscPSe11O4cgKqR1S8Sr2NFIkzttZSKQdrhpndAzyUWJ8URckKNWQDNUxni5mHOB0KtO5wUZLFIN/BeuBoj/uSBq7CXpyLbZnWQgg3ArtjHsvhI9UEPwV8OYH20uI1GiL2oOKqglYQB9yD0f8vIBUNL0O++82IeDmEiFoup1ga/bkMeBPwAMvPt1r0nk6SsFvkc+qDBkXJOCpgKX2GzZO79op8vsWLk7WR8OTJo6Ia2Ipd5Pajk7DBOyhcuQqqxzXnVeptpEissQWw5HJegZxZk0h/FEXJGnVkcx8nvGRN9H4VsHqDRTanqxlMAWsdEiIZhwqtCRFbETEw7sXThdQ+Cjwes620GUUEm5VIDfha9OdRYC2ynm1FBKZt0f8zJF/h0CAhnN9GqlAuRSU6fqfngYd8LkVRMowKWEqf8fA44dTVPvWcCwlclEiUuCBAhRBO0SjUe/EvL365vaTaoMFiKN12F8Vd66HahbDBnglAKl611gYUhgDPXEm8EuaKomSTMhKesj5GGxPErxKndI5Bxn9VrzuSElcjAkucG40plndg5ZCwsmKMY4HLHinVOT9H9sPyxog3voPCbPQ6guSnyiNurM1IwvsdyHeblJBlkHP2EMsLWJOIiDXe4bENktx+FK26pyiZZVDzACgDy/+9OqjVrsh5y93n2EblQSLhqQq2bC+d9XZx8cqai8MGTRBibJ3hO+6gtGstXq1LYYOxbgF6KZpl/D4vCfEKkHu1gGolvAGsPhhQlMGjhmyO4jAOaJmH3uIhiccHcZ3einyuOBf9kyzvEBxHXDdx9xAecBx4hP5IjD6KhJhl/Mamq7hww9PAk0iuqt9G3Fo1kj3P9gFXLPM7k8A0nYd5hogQp2GEipJhVMBS+gr7hXC0jjex5KXJCT7OeeXyX80sIAQtIWBc+KcLYYMhplahtP8gxatXQ/1kxsMGYxxXxasO2jOcn6pdZZ/9V53kXlAUJdsY4Bydb7Qt4li5HL336iUWEREHLVHzJsQd2OmFzUMEh9da+N11dO5waT5eCHwTOBOjnW6ymngC4UrhReCDwIeBE4joFzdvWIg4WHcs83sud1enx7OIS/PyDt+vKEoX0Jsopb+YnN6ey3mrFhUfrOS3apRGkdxXZg5smXmXtGXEq2bxKzRYW6d04A5KezZC5SiES5YybOk46byv18dNqo0USVq8ArDg5bwJ8s9mPQxCUZT2CYBjLF4CZDksEn60Fb336iUuHGk5J0e/sQXJ3dPp9cdHQqZacRmOES8XnDveceDrMdvpFmNInqeM39xkhgD4BvDnwPeQUNG4IlYduKmF3zkR4xju+90fow1FUVJGb6KU/qI+t4MwGF9YgLg455X7sw3BTF9ivVo8bPAi8coT8coElG49RGnferzgmMQjathgim2kSBriFYCB9auAqnlDOgdQFKXHnEc2+XHCU65CHCxKb3CJ3LczOAm5S8Ae4rmDcsApRFRajrXEDw2ziFOnFcdXFhhHxGd9QNUeJ4EPIAnY47rTXXjfUu5Ji+TJivs9uSIFiqJkEBWwlP4inN465NvCpSJE9PfmbYWJcl/NSfXBC/+2VM6rJvEK62HCEFMtU7zlAKVrNuAFJyAso2GDabaRImmJVwB4+LYKJrwtxYMoitI7TiMbsk43YgZxclyXWI+UTrCIgLW21x1JiA3AlcS7AFtad65MEG//4AFV4DnEqdMPbEacexm/yckkM8AnEAdrHOHTRu/fu8zvnUGchHHW6VXANR2+X1GUlFEBS+kryvXXrfbyARdXILQXfjh9wloJHbQj/0xfAAAgAElEQVQGzAyX/u4CXCpeGSwhxVtvo7RnA9RUvEq/jRRJVbyK8A1zs3Zf+gdSFKUHzCAOlTihMHUkPGVQ3D/9iEFyRl3d644kgEtKv5bOXSeuYtxzLf5+iXjngEejkl0/MARcT7YrEI4iOfayynHgS3Qegu3wWL4S7CxwlM4FLBsdZy+azF1RMokKWEo/MTI8/NJOTAjeBTtV41+j/+XyVlkLZhZszUb/1obzylqMCSjeuJ/hfZvwguMQzpFqzqu+Fq8yTjfEKwBrGCmNaZUxRRlcnqGxwemEAHHMLJfLRUkPl1D/RuLncuo1qxFHX5zwQQ8pUPBKi79fiH52ejwfmIte/cAVwLVk0y02AdwB/CRwT2+7sizfBM4SPxfWeAu/8woSchgn3Hs7g5crT1EGAhWwlH5iE+HMdkJXBKrp3snOewE2iCoPQsthg9Z6GGMw1TlKt97K8LWb8MxJdV51rZ0U6JZ4hQXjA69sZPlKOYqi9CdPAVN0fv9ko/cepL9zYY0DvwD8MJLcut9wG9Qbet2RmLwOqZgWJ+ePy0dVbvH3i8QXISpIGGE/cB8i2mUl/1UOEVbeCfxz5Bzch6wpWRZkZ4GXE2hnguU/53NIzsI46/Q44paNm++tl2wFfg14A+I6VZSBQAUspZ8YwwbrMfMEiUYEobxsU+6roOkXFmC+88qGBoOhcPMBirs3QP0UBHOoeNWNdlKgm+JV9MPWK2vgnw5CaIqiKAvzJeKF6xhEdLiO/r0P2wvsRtwfP4dsoq+nf/JKuXw6t5PtTf9SbAFuIb77qowkvm6VMMbxHE2PGzPNjUh+sSy4r9Yi59iPAj+PnHtrkPDPavTnAz3rXWscIZ6DFSSUczlR6SQSthhnjhlEGOzntBCHkMIhb0UeOLwV2IUmqFf6nH69cVJWJAfXWd+WJP/VxaGDFi52X9XBzNolBYxLwgaNxdgahetvZPjaLZKwPZgh1bDBRO4Be3HcpNtJgW6LV9Ef6zUmvvepjVu6dHBFUbrPNxAHSZyn+0PAnfRnjpUx4Gbk89eR/Dt3AD8Rvb4P2Niz3rVOiDgUDtN/98M5RHzbiHyOTvGQpNcvtfGeWozjOQo0QhGzynrg+6M/9/JmZxPioHlv9LoVOedCGt+9uwO+BQlRzipzxJuvIGvncjkEq8ALyFztVCwziLh9N7Lm9RuXI6GvdWTMVwNvBH4K+DFE3FqqoqOiZJZ+tkUqKwz7meJ15nTZ87yLr0XNOoW1HsZCOAu23l7CdhNWKd16kNKejVA/ITmvvFZyQKrzKnP0QryK/ur7fuGaHU8vl2RUUZT+5TzwPcRB1WlYUYhsNN8L/HFC/eoGHrJJvprGRtRtpH3kaf92ZNP3AvCPSNhQEqJHGlhEfHsV+U77hVsQETHuxS5EPvdrbbynTsNF08nxDbJxzrp4ezcSqteLuVtAHI43ISkJ1iDjFiLjvxABIsjeglT9yyJJOO/qLO+Is8DTiINua4xjGmSt+z7gwQ7b6AV5RJhfTWOs3DpdQios7kHypj0LfB0RsbMSJqsoS6ICltIv5Jk8tY+wxkUPSm3j54XKgzUws4uvwQuKVwQUb76V4p4NEJxW8apr7aRAr8SrCI/Ao3LkGuTG4XyXOqMoSveoAt9Gqr/FCd+qIqF4dwGP0h+bh21I3qU8l/bX0tgsjSOb733IBulJJLHya2RLzAqRcJo3IInMT/S2Oy2xC9l4FonnZskBp5Hvpp12pol3E2ARR0tW3R8e8HrgNhYXi9JiPSIAX498zwVkvFo9Z0LEWfMCIuBkjQKdVwd0NDvPluIEIs5ujXEsi6xz+5Hwx2/EaKubXIOsvwtdUywyrz3kIcoGROj7FpLj8STiyszwjb6y0uk3y7SychkinLvca15O55tfLFgThQ4u8mxmUfHq+psp7b0MLzgFwTR4Kea80rDB9OixeAXgYSGoXQHv1hwDijK4PI/kWIl7HxUi4sl+4ifGTpsc4kTYwvIXghC5EueRzfi7kEppb0aEvyyFj4WIy+LNZN8VtBEJa9tE/FCsHPBd2hftzhM/aXwREWriihlpcBB4U/Tnbt7weIg4/C7knMkj51A737NBxOM3I66trLEJWTPjjOscrRUcCBFRZop488yN6ZsQV1zWWYuECg6z9HlqaYiBLgz8x5Ew8LsQ92EWz09FUQFL6Re+txobbr7o7r4p95W10b/UwM7aBbcBC4pXpkrxpv2Urt2CZ6KE7Wk7r2LdDql4tSgZEK8APA+wdiMc7NfEwIqiLM8Z4CvEXxQN4kZ5O+LGyjKHkZwq7YQBGRp5aDYjzpZ3Ik6TrOBcFjcA95Itca2ZCeAdSEhZXPHKR4SAz3fw3mniu+g8ZL5nLen/65BE1ws5DNPGIo6haUS4ihOefDUiYmSJApIQP65QP0Xr8/8Y4pZN4kHDRqQiZZarTPvIGnYF7bkHQ+ScHkJyZ70dmT96H6tkEhWwlL7A1j+4DerrL7nuRYKUtWBCCGctdoFL/gXxCi4Wr/YfpLR3M154WhK2p+m86lnYYFL0+vhLkBHxCiIBy7Or7dFvrEu/P4qi9JCvAUeJL3iEiIj1Y4iIkrWn3j6SV+f76dw94Z72W8S5diax3iWDE7EOkU0n1gQNkTOJPEIW+CqdhblPAq1WuFnq+BuRQgZZ2IsUEOfVO2gkSO8FxxHBJe7YBkiy93titpUkVwGXET/8dLLN9zyGhC7HnWcGcZ++A3EPZo084hK7kc7nb7Mr6wgicitK5sjCRUNRludTD1xBGKy+8PcoXFCQ3FemarHlS6+LFzmvjEdoDJaQ4k23Mrx3cxQ2ODXA4lUS4o6KVy2PgbWE9foqzh3flW5/FEXpMVXg48jGJu4m0VXzexdSXS5LOUoPIBujMeJXvJtDhJMs5cFyuEX+LmSTmpVKilcB70aStjsRMA4+cApJsN8JZ5F8YXGwiFB7E1IMoZcMI+Ls24k/x+MSAF9GBMI4ezSXZP+NSGhYrxlBBMLlwtqWwyBFIdrhVUQUDIm/ToeIQ+mHkDDPrODCu++O/h5njcgjebC+QW/PBUVZFBWwlP6gHqyrBfbCE9Gm3O1R7iuLmbXYptxXLieWdQnerUcYWkytTOHG11HatwXqJyGcaSFsMMYDz1gCS5wHrUk9pF3p4lX7Y1CthWPU5y5D11hFGXReQDZHSbimAmSj9xYkDCQL4RuHgB9AQr2SCFt7AXgubqdSxG2ubwF+GNms9pJron7sRfoW96LnId/j1xC3TydUEQEsriDgqhH+AJIXrResAt6GiJZxk+InxXGkKlxcZ6dBPtObkdDdXrIfKegQJym+C3ttV8ACCfc+STJutAAJh76PbDjcfCTs9R4kBDBu6GseeAIp8KAomUQ3V0ofYIfI+9vw/KH5WoI1YKzFVsHOceEyMj9k0BokbDCYY/jQ7QxfuwXPnIRwmuVPgxj3i7HFq168N8k2UqRr4lX7+H6uSL6wkeyFAimKkiwB8DlkQ5/EPZVBNq73AD+D5FsZSqDddlmHCGnvQFwpcTdFPpK75lG6X9mtXdydxm7gp5HNd7cr5k0gc+C9SBW1JMQrkM3p08j30Gl7IVJZskwyjpZNiMPsekRw6QbF6Hg/i4i0vch5tRRfQISsuPcQBnE9vTV6jcdsr12GkPPnjTQqKnZKgc4rKx4FPgtUSG6dXoc8aPgRJKdft12zPrI2vJdGVdIkxKtXkLBLRcksWbKoK8pijFA9d41v6xddyC1WkrcbCKftBcP0JeKVBROGWEJK+2+jtHcTVI+L8ypNfUHFq/TIsHiFhWLeArWdYIvgZX2zpihKPF4EvoRsEHMkk9jdIuLVTyJPw7+JhMKkvckeRhK1H6KRcDmuK8VD+v0E8EzMtrqFRYS2dcgG9WlEVHiRRescJ0IJcV0dRhJx+wkeL4eEpn0CcVHF4VWkemESofIBIgD8COIM+wLp5UgbQjb9tyAJ20skE5aZNGeRNeVNxBd+QmQevR5J7v1F4CnSnccgwvftSAjjCPHDjwNkHeyUbyJr6u0ks466cT2IjOs3EedcN/L7rUUE2FuRvFxJhRbPIOJ2JWZbipIqKmAp2ecBClTql+U9A8Y97LNY05T7qsoS4pXB1CqUDhymtO8yqB6DcJbWxKteVP1T8WpJsixeRXheSGW2vI3sVrNSFCU5LBKish1xG7RS4r2VNgNkE3gnsAfJSfJ1JCFxGlyPiFd7EceRS2welxwieDyeQFvdJkA2dvuQsKFvR68XUjjWXiSJ/z4a459USJuPiACP0nnoYDPngedJRsAC+ZzDwG3IOLu5nuRGegsiWl2D5DdLUhxMg68j47uP+P10efp2Io63ryA50DpJ4t8KVyLC1XWIaBh3HueQEMA4551BXFjXAGsS6JNr0yJzdj0ikH0d+C5STTJpnHPwZiQ3XpFk5/BzwJMJtqcoqaAClpJ57NDBsbDMhpxHJFJFlQajWzszLT9FtJoXNmhCTFBj+PY7Ke3ZCLVX0xev1HmVHl1L2B4TD85Nm232Oz845F3b684oitIFysCHkU3yepLbVLiN55bodRjZxD2BCBG16NWO0OQh938lRCjZg2yINiOiu2mzvaXwgVngIbKRU8Wj/QudCylch4TqHEScWE8ALyHjX2n6vVb64CPjP4RsqA8gFdpcGFDSTjsPSZ7/6QTbfBxxgKwjOTHAiSzbEQHkceBbyBiXaW2Mo7tFhpAx3oiM724khM4Js+2OcSdzJw5TwP2I22Yz8dcU1/cJJKRvPxIK+hkkt1SFzr9HN5/Horb30EiIH3cuO/fVV4gvaJ4FPomE/o2TzHnm5mQOmWM7ouM8QyMhfwVxdLY6f9zT+gKyJowirthdNMIVkxhbRx5Z0z6OrNeKkmlUwFKyj63vwvNHL5QSjJZ/A5i5KP8VLOC8CrBYhg8epnTNBqiqeJV+GymStWqDSzZhGRsrjOFXNiFPDRVFGXxmgQeAHwRWk6wI4TaWq5HwpxuQSnAulGsScVPMIZv95oUsF73GkM3rKLIpvhIRH4ZpuFGSfJrvhIR/oPPcNUnjEo/7tL/Yu++giDjV9iAui+NI3phpRHQ4j4xjsxjgI5vR1cjGeRXioNiMfB85kh9/xxDiCPkYyc7JSUQUe1OCbTrXmRNt3wG8AZnjzyPjOxn9rHNxIvkhJFRtLTLGG5EwzDU0clzFGV93rG4m7T4DfAp4D8kk6IaGeLcGEUVuQhKjH0FE5leRENOAxlriQtRyNMTBIWROb0TE16uAbTQqDSY1l30agnESfBWZJ28mfnhmM8416yFjsglZq19DcnAdR64R5xAxNph3bB8Z01XImjCGjOtlyJwuRb8Xkuw6kYv69Um6E/6oKLFRAUvJPpXpPaYeTuSwjeqD1hP31RwX3Fjzc16ZoErpwGGKuzZEOa/m0LDBNNtIkX4Sr6JmCrl6nvrcYeTpsaIoK4PvISLFD5BMUt35hDRyr6yPXtchG80qsqmvNB3X0thoNv/M09iIG9KpvjaEhII9mkLbnWCB7yAi3k46TybvBAAvamsCcUY4N1w1+tm8yczTcAQ5V0UjJ0J6ie0LyKb0QcQJkjRfRZw8SbmwHG5MPERs2I4IJG6MK9FPd0wP+awFZIyLNG744o6vcwA9hoRvraK7Cd+fRJw9B0nWBebWkiEarrcKMk9mm/4c0HAPFZC1ZxT5XkYQoWWYxninMZe/gIiWSWCRNWkdcDftOaNabd+d+wVEpN4cHWf+GmGb3uPW5yKyXsyfw2mI2z4yBx5D3HiK0heogKVkn6C6zbPBKNaA9cWEZSGcs5jItH9JzqugTungHZT2bMSrHxOlq6XCI71wXsVBxasED5RoU8V8QFirX59co4qi9AEhkiTZAD9GI7QsaZpDqVz4znCL75v//jRwFcP+hmwkBHZi0VHEabKB+NUVm8fQQzacpcV//ZL3pX1xyyGusL9FHExpcAZx2N2LbMCT/kzzx8mN8cQy74HkRKYcck7/A5KPqpsOLJDP8QCNin5JVaRsbt8xjIhS7eC+ozREvWFk7OMkb18IgxQzWIM8AEgrkX/zmOSjVysVTZOewwvhims8jrivFKVvSKKUqKKkS35ic75gxHWFuK9MEOW+Mg3xyhgwQYgxdYYP387w3g149aN9IF71wvGVZBsp0o/ilSNvOTK7bnvyDSuKknEsUkHsEWSDkPa9VvMGcrlXN4STApL/5S9Jx/UThzySqPiziAsiqe+m3e8gbfJIKOOHkfDBNHkcCe/qxp6ilTFOco4PITnn3LncbfHKUQU+gjgaXUL+NGh1DndjPueR0MYHUmq/AnwIKcrQjdDQLK3T7rN+GRnfLBczUJRLUAFLyTzG2m3YACwYEyVnL1tsHazHBeeVDUNsWKG0/yDFHWuhdhKxaKl4lV4bKdLP4hWAtWxeE7hkm4qirDweQTYIrpLdSqCA5Hr5EOlVOIuD26h+BakW1u2cRt0gj+RC+xTdqShWRxwcLyIOqUEhh4gcH0ecbL0+h6vId/oyg39fkUNyRX0MmctpMYOE134PEStXAq6Ix5OIC63W2+4oSvv0ejFWlOWYqFanryYILjiwwgDMjMt95cIGLaZeoXjLYYav2YRXPwHhDCpepdlGivS7eAUQQr5+ZiOS6FdRlJXHNLL5/XtkczTo91xFJETvT8l2MmAP2RT/HbKJKzA4IlYeEZQ+ijijunUxnUMq5k0zGEKAjzhh/hZxYGWFU4ir7kUuzmM3SLi8TPfTnbxMp5Ex/Q4SsjiIY+rwEXHwu8hnLve2O4rSGYN+M6X0P6tzNriCUJzbJgQzI5UHsR7GRmGDQZmRu+5m+LrNoGGDXWgjRQZBvIqar1erG+BWDSNUlJVLFRGwPohs8lupJNJvuE3RE8AfkG3xqpkp4M+RROTQ3/fEHvIdHAP+mMZn6iZHgfchgkA/O4RcRc4/Q5x6WeM48CfA16K/D5LgkkPWzPfRHfegYwoZ088gwuUgrtM5RNz+e+Qhg4pXSt/SzxdrZUXw5OpC0WCMJ4HhQaPyoAVsEGJNhdItt0nYYPWEhg2m3kaKDIp4FR3C87zSm/7N5WvSP5iiKBnnMcRRcILBcKg4csiC+jiSo2e2t91pG4uEED0R/bkfxQAXEvQ88NfRz17xPOL+OoU42/qNHCJefRx4qsd9WYoysp44gW0Q9nMub9tHkZC+XvAA8GnkYcOgrdN1JKz97+luFU1FSZxBWPCUAeYDf/br12PrWOtLDqw5xH2FJ2GD1QqFGw5S2rcFqschnCVV8Sq28KHi1aIMkngVHWYoh/epXwyuQNdaRVHEMfFnSBLxUfr/KX8BCfX5JLKZTjNXTZqcAx4GHkU2rf3kHsohVfmeRpLmH+ltdwARHz6IOPH6KSTLhfneD3wemdtZZgbp66PIGPer4OIh8+QU8D8RMblXhIgL6/1IOGw/zd+FcNVRZ5GQwc+gOa+UAaCfLtLKCuTHNzx9K+dnMAxhqmDOg8XDhgZrQ4bvuYvSrvVQfjlyXrWyH1DnVeYYNPEqIueHMHPuemATYvtXFGVlcxr4PeAwcCewPvr/GV+kL+CSnhskj8pHgLM97VEyzCAJo78DvB24jMbnzCLueziDJGL+Rm+7cwmvAL8OvAvYj4grWR5LkD6/HzlH+4UaMm+/CvwQcEX0//thPXFzuI5Ubf2b6M+9xiCC8H8A7gUOIA8culHBNSmax/YJxGXarw8YFOUSVMBSsk1l9kpCAwbMrIQQWgzGVijtP0Rp+xqonABTRcWrPmVAxSsAPAthZQPyFE9RFMXxJWTDfCdwHeKiSbMkfRK4TdF5JCTyMSR3zCDxHOIeuhO4ARghe9+LyxP0DPA54KVedmYZHkCcNYeBjYjDJUtjmUfG8ptIaFW/5G+bz1HgA8Abgb3AGNmbt834yFpyEvgiIsBlQbyaz8eRhPl3AFcjbqaszeH5OMf/cSS0+zHUdaUMGCpgKRkn2GSMh6l7hLMWjMGGZQo3HaC4ZzMEJzVssGvtpMAgi1cOz1sL/3EE/nPv+qCsRJzYELcNJT2OIvlengEOAjtpJJDOklslh9wvBshG83Ek11GGLy4L0up8PoEIL98F3gJciWxaA3r3mV2eKw9J1P4FJMn1TI/60yo1JMTtZeD1wLWIG6tOb+dPHpnXpxER8Ku0ltQ6zpqY9np6loaL8B7AFZAJyc564taSGpK/68vI3MgqFlkHXkUeNNwGXB79W5bWaQ+5duQRp9VjyDp9nP5bpxVlWVTAUjLMb99M/de3mjBPOA22EmJyHqUDt1PYtRGvdiyqNqjOq/TbSYGVIF5ZgPp6+9w3t3s7+XbvOqKsQLIU7hCnH1n5DGlRQTbPX0UErDsQwWSUxpOZbn+XXtNPg2yMX0LyRE12sR8L0a25VEWEgO8gTqw7kI2rS0zeje+k+XuoIZvRf0Q2plnPz9SMQUSK9wFXIeLKTsTN4tG9+d0c/noGEU/+kfaqsXUqWLjPmLaIVUaEzSeB64Hbga2Iw7ObY91M87ifQwT7T9Jf7s1JxCn2ReBG4BCNcfXp7biCiGlnkMIDf4dWGFQGHBWwlMxiP/PRyzlWnTBVHzNtsLZC6XWHKe5YD/WTYMqoeNWNdlJgJYhX0eGDan0i752/Apms/bTpSJsasjk8S2ebAh8JZaom2akBwSJhD3k6m3Nus5FERbkysknM09kJ6SNOpZVw7jwXvXZFrx3AOi5O+J5WWJDX9AqR7/61qD/fRcIds3BReRlxH3U6Hzr5HN9CHGfXAfuALcAEje8kyc1r86bUIImkX0Vy8jxF/+cbewkJdbsWGcsrgDU09iNJCwHN9vwyErL2LDKn201478RmF1babj9m6G6VzieRebMHuAYJgVtNI1m9JR3hpXktMci4n0K++28j53AW1pJO+SZy77IPcbldBazl4oTvaQlazetDiMypk8ja8Cyaa1VZIWh4gJJZ7Meu+yfB5JE/qp+oFupnKxRuPEjx+i14wSkIpsFLOWww1qVHxatFWSniFYAHlcCvlYqr/y/vdV/8b2Qzx0OvcFWT4lRotIgQloEvO3Pkif+Qqkr8sXVVkOIQsvLOnSFgFfKU/3Jk87kB2TwP0XBTuHws7nta6vtqdvS4kBN3/tWR0BPnkHgF2RidI1tjH3deB9GrUyaAzYjwshfJ6+S+E0tDYFxOHGjeiLrvwYmHZWQj+gKy2T+CCFmDts6NIuN3NeLI2oLkbnKhks1zezlBoFk0ceNpkOvDeUQ8eTb6eY7OBVDnGuuEXl6vhpGCEdui11XI+lJAhNh25q7Dm/dy7QTIteMcModfQkTYcwxeLqYSIgpeQWOdXofMEzePDRePLbQ2l92fm+dzHRFBTyGi+hEk5Pn8Mm0qykChDiwlu/j+1rDi5YNpS/HAbRR3b4L6MQjL6YpX6rxKj5UkXkUiaD7v5cl7VyA3NFnaCPYadzOvpEPcjXpSWMS5oLRHHQkJOYM4KfLIGnIlsllaG71GkU1UgYuFkPm4DarL5VRBnt5PIhvLlxDXXi06dlZyu8yn1/N6Kno9izjBCohb7kpEIJhARJgisqFf6PtwwqMTZiuIs+osIhp+CxEAspRjJw1mkTn3EpIny0PG8ipErF2DjKUTWXIsPJYg4xgiYzmFuAfPIGLsMRrzPi796vgtI2LHESQ/Ug4RWnYi89bN3WEaYXFu7i405k6oCpExmUPWkrM0xNeppt8ZVCqIgHQCcecNIXP2akToXofM4+HolWf5ddrlLKsh39ssskafRs6Vo8i49jqPnKL0DBWwlIxi1zKz5brw/KRf3H+Ywo71EJyCcA48DRtMv50UWGniVYSP8TGVHfDIKLwh6wl3FUXJHm4zU0NCcFw+vVFgHNlwFpGN/giNPE0OtymqIBtNJ2BNkv0k4FnFCfA14OvRC0RUHEe+jyIXO+bc+1xY1SwN59sZBnujvxTNDzOa5/eq6NU8t0tN73EuxCoyj5vFQM0BtDhOBD4WvRwuXLmEzNkSl4bFOWdcFZm/zm01g7qADDIWVS4O9XWithOwnEjoXJvN4+vWA7e2zCFCoM5nRWlCBSwlm3zkAyOcmb18aPutDO3aALXTEMwOqHiVFL0+/hKsUPEKD3wfKrO1zTRuvBVFUZJglu7m1FGW57XopcRnkt4XDVhJOBegkizOtTkfJ8AqitImcXKPKEpq2Kf+y3Bl/S2XeZs2YcvHIZwGr5W0A71yQHWrMFKabaTEChavbAjhZMhrR+ob7Wf/e9w8QIqiKIqiKEr/k4WbVkXpS1TAUjKJ9+9+8ETpqs2/G547+rWpo1O2PgWmbpdJnRnDedWThO1x35tkGymxEsUrD0wI9RnL1LHQzJypP7VlJPwD7/tuPtnb/imKoiiKoiiKovQvWoVQyTJ5YK996LpfmQ241xvythZX+fhFT3K4X9AsYogXsQQWFa6WpCviVVbGQMRVayEsG2rTEFTNaxMF+1HvvmN/AuVvo6E+iqIoiqIoiqIoHaMCltIPjNu/2H096ws/d2rK/sSqNbmh3KhHfjgKH+9Yw4j53o5R8Sqhg3ThGC3gST/CqiWctZw7W69vGvcfBPP73n0vfoWFcx8oiqIoiqIoiqIobaACltJXfOrfb3vXnfvHfjGw/sGhMX98aBxyQ177qRDVeZUeK0W88gAspm6pnrfU50zZt+bbR4+Gv7H3V19+EKkmoyiKoiiKoiiKoiSAClhKP3LF0T/c8ZatVw3/wrmyvWVsdY7csIc/FP3rctqGilfpsRLEK09eYc1iy4bylGG84D2GDf/Ke9sLDwAv9LaDiqIoiqIoiqIog4cKWEq/4sGOHfbh0nvmAu9nQo/tw6t8csMeXo4lNA4NG0yNFSJe2RCCsqFyPsS39shogfd7b3v+D4FXgbC3HVQURVEURVEURRlMVMBS+p7j/+fOfZvvLPzL0zP2PaNj+fHCuCdC1vywQgU61SMAAA+ZSURBVHVepcegVxuMErTX5yzBTEi9HM6uGvI/iK3/jvfOl5/sTacURVEURVEURVFWDipgKQPE+Nvsx6/8idka9+ZHvLH8qE+uFP2TUfEqNQZZvHKVBaME7cFsMD1atJ/+jx8pv/+/vO/4R7vfIUVRFEVRFEVRlJWJCljKoLHWfvz6A3j235+ZMbdPrMmRG/XItZofa0E6FU5UvErwQF06TkS0MoY1SzBjmT4fsn7E/ywEv+Hd98JXgbPd7ZCiKIqiKIqiKMrKRgUsZVDZYB/e9/Onpswvj47ltuZHfQpjUX4s004zKl4tyqCKVz6YAIIZQzBjmZ0NX9owwfu8+57/XeC17nZGURRFURRFURRFARWwlMFnm31o7y/WrffzVeNtKE545Mf8S/NjLYiKV4syiOKVLwna6zOGyqSl5HunquXgjyZ+7PnfB050ryOKoiiKoiiKoijKfFTAUlYE9uHdh/EKP39uNvyR0lhuZGjcI1dcINF74x2dHqnzTibaRooMmnjlgTUQViy1GYOp2HNjRe/9DId/7b3h+S92pxOKoiiKoiiKoijKUqiApawkCvYTe95w+hz/I1fIXTs64ZMf98kVEK3kgl6i4tWiDJJ4Fa1+QdUSTlvOvxYw5PHVtavCf+vd+9IjQJh+JxRFURRFURRFUZRWUAFLWYkM209c93Ngf/7crL1+ZJXP0ISPnyOGQKPiVYIHSv8QHpjAUpuylCcNa0b4yhPPzP7Brb927P1APf0OKIqiKIqiKIqiKO2gApayktlqP3HdL2D5ybNz4dXj63IMjUSJ3tvSUFS8SvBA6TbvSZ6rYNYyeTaw60dyz+LZP/XufebPgZPpHlxRFEVRFEVRFEXpFBWwlBWPfXj767Clf3rktfoPrV8/tHZo3Jf8WD4pJnpPq50UGATxKspzFcxZKudDJs+Hpy5f632QIn/oveX5p9M7sKIoiqIoiqIoipIEKmApSoR9ePebIf8rZ2fMm0pjucLwGg9/yJOzJNFE72m1kwL9Ll5F311YtZTPGcKKnR7yzN+ZevV3xn/86D+kc1BFURRFURRFURQlaVTAUpSLGbIfve7dFMJ/cnrG3D22Nl8ojkZC1kWoeJXggVJr2dShPBlSngzL68e8R/D93/PufeaTqR1QURRFURRFURRFSQUVsBRlYdbZh65571SZn6977JlYlx/KDXuS6F3FqyQPlHyTHpiapT5jOXcmCEbzfHN8zPt9797nPgxMJ39ARVEURVEURVEUJW1UwFKUJbCfuPyGsD72E8cnw59Zt3Zo/dCoR37Eg5byYy3ZckI9TIF+FK+ilcyGlmDWUp4ylGfNkQL2L9bs8T/g3frc95I7mKIoiqIoiqIoitJtVMBSlNY4YB/e+8tzNfvGes7bMrY2h1+gxUTv81HxKvExsJagbJk9Z8z4kHfEx97vve3Z3wJeTPZAiqIoiqIoiqIoSi9QAUtRWicPo/fYh7b98qnZ4I1jE0NjhXGPfHGpRO/zUfEqsTHwwIYQViyzkyHl6eD05oncg97bT/4xTD+WzEEURVEURVEURVGULKAClqK0zwb78K6fOXaOHymV/P0Ta3L4I1Gi9yW1GRWvkhSvgprFzsL5s7WaZ/nC+lHe573jhQeBqWQOoiiKoiiKoiiKomQFFbAUpXM2/dsfvuw9/+mnV/2LqmXb0JifK074i/yqildJjYENJMdVOGeC8SH/ce++V38HZh9GE7QriqIoiqIoiqIMLCpgKUp89toH9/zkVMW+2y/mdpZW+filqGKhBRWvINYYROGZJoCwbDh/JqiN+963SiXvr737nv1/gfNJ9VJRFEVRFEVRFEXJJipgKUoyDNvPbD9kZwu/enI2fMOa1UMj/ijkSx5ey/mxukxXxKuYx/DAGghmLbUZw+xseHLjCP/Te0f5A3DsSSBMpJuKoiiKoiiKoihKplEBS1GSZeSRf7f13tcfHv9fKqH3/bZIvjju4Rc9ML3uWhN9Il4FZRGuvLKZGi76Hz16rPa+K37hpUdR4UpRFEVRFEVRFGVFoQKWoqRDzj6w5114/Npk1V5XWuWPDI3l8PL01pHVtZDGDo8ROa5MALNnQ4KyeW3tCI979z33nwCtLKgoiqIoiqIoirJCUQFLUVJlbJ99cMu7zsyZ946M5HcPjfnkhpGKhb1wZGXVeRWtREHVYiswMxky7NtHSn74Qe8dL34KeDXRLiqKoiiKoiiKoih9hQpYipI+ub/5lc033/fGiV+ZrfGu4dHcaH7cIz/iidbTtTzqGRWv/CjP1bSlPm2oVcNjq0f4gHff8/8NSdCexQxiiqIoiqIoiqIoShdRAUtRust2+9Du/zA5yzv9EW9iZHUOv+jh+aQr02RUvDIGgjnDzGuGAvbYWD74Te8HX/ojYDr5/imKoiiKoiiKoij9igpYitJ9xu1D17wLz/74a3P2rvHV+YI3AvlidDomrTV1RbyCljse5bmqVyyULXNT4enVI3ySfO593lue/my6fVQURVEURVEURVH6ERWwFKV3XG4/tuuHz5T51xPj+a0MexTGPfBJLj9WlsQrD8hBWLEEUxZTteSt/eKQX/917+0vPQrMpN1LRVEURVEURVEUpT9RAUtRMoB9YNf/UTO5X5ypc9X4ep/ciIfvx200I+JVtMqEdUt10lKbMrXVIzxBUPsN750vP5h+/xRFURRFURRFUZR+RwUsRckI9iO7bqXk/9K5WfuDxVF/7dCYT37Ew/NoP6wwQ+JVGFjCWZibNIzmeG4ob37Xe9tzHwDOdKWLiqIoiqIoiqIoSt+jApaiZIsJ+8Cuu8nn/sVUxb6hOOqTn/DIFT0IW2whC+JV5B6rTVu8smVqKgzWjfq/hV//oHfvi1/rTv8URVEURVEURVGUQUEFLEXJKPb+nfdWvfz/mKmYvSOrcxRX+fh5ljY99Vq8ilaUoGKZOxNi63Zu1Zj/KX76mZ/zTvNalzqnKIqiKIqiKIqiDBgqYClKtllnH979L8PQf/d03e4ZXeOTG1lEyOqleBWFOQZVSzBjqUyH5dWj/iPk7B95b3n2oS51TFEURVEURVEURRlQVMBSlOyTt5/dfz2z0z97csr+4prV+TwjHoUJT6oVWnorXvlgA6hPGWozhiGPp4tD/Lb3tmc/DJzuUscURVEURVEURVGUAUYFLEXpH3L2od03gf+fT02Zt4yO+7nSWp9cgfaTvHfEvINErqvqtKVyLqA6Z05sXO3/V6z5M+8dL0x3o0eKoiiKoiiKoijKykAFLEXpQ/7yP+5813sO5P7ZazP2YGncL5ZW+fhDXBCVkqepUQ9MCKYCM2cDCta+PFIK7vfe9tJvAS+mcXRFURRFURRFURRlZaMClqL0L1fbh3bfN1MxP2vz/g3DEzlyIx5ejoRFrKixaLUIy5b6jOHMmaB++Rr/w2D+wrvvhU8leURFURRFURRFURRFaUYFLEXpbzx4/Ub78JFfff5E+EvrVudXja7LkR/x8BJxY9kLq4QJoHbecPZUnbxvv7xpde5/8+577luAhgsqiqIoiqIoiqIoqaIClqIMDrte/fOr//nYSO6HKeQuG17lkSv5+J06sjwLFkwdajOG8mRYzRv7xDt/5+yfPPLF8x8Cygn3X1EURVEURVEURVEWRAUsRRksRuxD19yNb/7Z6Sl7x/jq/7+9O0aNMgjDAPzO/MmSBNegYESJWlhYeAQLETvxBIJXsPEsNpaKWFh6hngEBaOIFikiouxGTUJ2xkKxULBSgtnnqb9i3mKmePlg6nh0rKYulqT+mPhTmfXzRejps6R97Zl+mKW0trm6Uh+Vm5uPk7z8pwkAAADgFwosOJpO96cXr25P2p0+DFfG4yGLy0PqUlJrUmp+u/29Jb31tIOe2Zee3c8t0+nB+/XV8iCjer/cePU2yd5hhAEAAGC+KbDgaBue3zt/d+3kwvVhKJdnpZ5ZHNU6LJQMQ75vZfWktaQf9OzvtZRZ3ym9v+ktGydubT9Mps8OOwQAAADzTYEF8+FscuHS5MnCtfHScC4963utrfWW2nvK8qhO0/vWbNbefdzJi1O3X28k2Uyyf9gHBwAAAAUWzJdRkpUkq8na8SQlWSnJ1m6y/ynJJMlu/sL/hQAAAAAAAAAAAAAAAAAAAAAAAAAAAAAAAAAAAAAAAAAAAAAAAAAAAAAAAAAAAAAAAAAAAAAAAAAAAAAAAAAAAAAAAAAAAAAAAAAAAAAAAAAAAAAAAAAAAAAAAAAAAAAAAAAAAAAAAAAAAAAAAAAAAAAAAAAAAAAAAAAAAAAAAAAAAAAAAAAAAAAAAAAAAAAAAAAAAAAAAAAAAAAAAAAAAAAAAAAAAAAAAAAAAAAAAAAAAAAAAAAAAAAAAAAAAAAAAAAAAAAAAAAAAAAAAAAAAAAAAAAAAAAAAAAAAAAAAAAAAAAAAAAAAAAAAAAAAAAAAAAAAAAAAAAAAAAAAAAAAAAAAAAAAAAAAAAAAAAAAAAAAAAAAAAAAAAAAAAAAAAAAAAAAAAAAAAAAAAAAAAAAAAAAAAAAAAAAAAAAAAAAAAAAAAAAAAAAAAAAAAAAAAAAAAAAAAAAAAAAAAAAAAAAAAAAAAAAAAAAAAAAAAAAAAAAAAAAAAAAAAAAAAAAAAAAAAAAAAAAAAAAAAAAAAAAAAAAAAAAAAAAAAAAAAAAAAAAAAAAAAAAAAAAAAAAAAAAAAAAAAAAAAAAAAAAAAAAAAAAAAAAAAAAAAAAAAAAAAAAAAAAAAAAAAAAAAAAAAAAAAAAAAAAAAAAAAAAAAAAAAAAAAAAAAAAAAAAAAAAAAAAAAAAAAAAAAAAAAAAAAAAAAAAAAAAAAAAAAAAAAAAAAAAAAAAAAAAAAAAAAAAAAAAAAAAAAAAAAAAAAAAAAAAAAAAAAAAAAAAAAAAAAAAAAAAAAAAAAAAAAAAAAAAAAAAAAAAAAAAAAAAAAAAAAAAAAAAAAAAAAAAAAAAAAAAAAAAAAAAAAAAAAAAAAAAAAAAAAAAAAAAAAAAAAAAAAAAAAAAAAAAAAAAAAAAAAAAAAAAAAAAAAAAAAAAAAAAAAAAAAAAAAAAAAAAAAAAAAAAAAAAAAAAAAAAAAAAAAAAAAAAAAAAAAAAAAAAAAAAAAAAAAAAAAAAAAAAAAAAAAAAAAAAAAAAAAAAAAAAAAAAAAAAAAAAAAAAAAAAAAAAAAAAAAAAAAAAAAAAAAAAAAAAAAAAAAAAAAAAAAAAAAAAAAAAAAAAAAAAAAAAAAAAAAAAAAAAAAAAAAAAAAAAAAAAAAAAAAAAAAAAAAAAAAAAAAAAAAAAAAAAAAAAAAAAAAAAAAAAAD8x74BLgq2v1E76CAAAAAASUVORK5CYII=;clipPath=inset(27.22% 13% 32.28% 12.67%);" vertex="1" parent="1">
          <mxGeometry x="510" y="300" width="180" height="51.65919282511211" as="geometry" />
        </mxCell>
        <mxCell id="QcjJaONah8FLoVzXu9KI-11" value="" style="edgeStyle=orthogonalEdgeStyle;rounded=0;orthogonalLoop=1;jettySize=auto;html=1;" edge="1" parent="1" source="QcjJaONah8FLoVzXu9KI-9" target="QcjJaONah8FLoVzXu9KI-10">
          <mxGeometry relative="1" as="geometry" />
        </mxCell>
        <mxCell id="QcjJaONah8FLoVzXu9KI-9" value="Photos" style="rounded=0;whiteSpace=wrap;html=1;" vertex="1" parent="1">
          <mxGeometry x="180" y="360" width="120" height="60" as="geometry" />
        </mxCell>
        <mxCell id="QcjJaONah8FLoVzXu9KI-14" style="edgeStyle=orthogonalEdgeStyle;rounded=0;orthogonalLoop=1;jettySize=auto;html=1;entryX=0;entryY=0.75;entryDx=0;entryDy=0;" edge="1" parent="1" source="QcjJaONah8FLoVzXu9KI-10" target="QcjJaONah8FLoVzXu9KI-7">
          <mxGeometry relative="1" as="geometry" />
        </mxCell>
        <mxCell id="QcjJaONah8FLoVzXu9KI-10" value="Images folder" style="sketch=0;outlineConnect=0;fontColor=#232F3E;gradientColor=none;fillColor=#232F3D;strokeColor=none;dashed=0;verticalLabelPosition=bottom;verticalAlign=top;align=center;html=1;fontSize=12;fontStyle=0;aspect=fixed;pointerEvents=1;shape=mxgraph.aws4.folder;" vertex="1" parent="1">
          <mxGeometry x="380" y="363.59999999999997" width="58" height="52.79" as="geometry" />
        </mxCell>
      </root>
    </mxGraphModel>
  </diagram>
</mxfile>
